<?xml version="1.0" encoding="utf-8" standalone="yes"?>
<!DOCTYPE svg PUBLIC "-//W3C//DTD SVG 1.1//EN" "http://www.w3.org/Graphics/SVG/1.1/DTD/svg11.dtd">
<svg width="664" height="447" viewBox="0 0 664 447" style="fill:none;stroke:none;fill-rule:evenodd;clip-rule:evenodd;stroke-linecap:round;stroke-linejoin:round;stroke-miterlimit:1.5;" version="1.1" xmlns="http://www.w3.org/2000/svg" xmlns:xlink="http://www.w3.org/1999/xlink"><style class="text-font-style fontImports" data-font-family="Roboto">@import url('https://fonts.googleapis.com/css2?family=Roboto:wght@400;700&amp;display=block');</style><g id="items" style="isolation: isolate"><g id="blend" style="mix-blend-mode: normal"><g id="g-root-cp_5_g-5_1ur5gegfbdbm2-fill" data-item-order="-216206" transform="translate(319.4959716796875, 323)"><g id="cp_5_g-5_1ur5gegfbdbm2-fill" stroke="none" fill="#4e88e7"><g><path d="M 287.0654 10L 33.9439 10L 10 52L 311.0094 52L 287.0654 10Z"></path></g></g></g><g id="g-root-cp_4_g-4_1hfoy14fbdd70-fill" data-item-order="-216202" transform="translate(350.281005859375, 269)"><g id="cp_4_g-4_1hfoy14fbdd70-fill" stroke="none" fill="#3cc583"><g><path d="M 225.4953 10L 33.9439 10L 10 52L 249.4393 52L 225.4953 10Z"></path></g></g></g><g id="g-root-cp_3_g-3_1czvfwofbddza-fill" data-item-order="-216198" transform="translate(381.0660400390625, 215)"><g id="cp_3_g-3_1czvfwofbddza-fill" stroke="none" fill="#92bd39"><g><path d="M 163.9252 10L 33.9439 10L 10 52L 187.8691 52L 163.9252 10Z"></path></g></g></g><g id="g-root-cp_2_g-2_18koevcfbdbls-fill" data-item-order="-216194" transform="translate(411.85003662109375, 161)"><g id="cp_2_g-2_18koevcfbdbls-fill" stroke="none" fill="#1eabda"><g><path d="M 102.3551 10L 33.9439 10L 10 52L 126.2991 52L 102.3551 10Z"></path></g></g></g><g id="g-root-cp_1_g-1_zp1emgfbdcei-fill" data-item-order="-216190" transform="translate(442.63702392578125, 101)"><g id="cp_1_g-1_zp1emgfbdcei-fill" stroke="none" fill="#e0cb15"><g><path d="M 64.7289 58L 37.3645 10L 10 58L 64.7289 58Z"></path></g></g></g><g id="g-root-sy_-1_Line_hydv7sfbdblw-fill" data-item-order="-216121" transform="translate(284, 341)"></g><g id="g-root-sy_-1_Line_1_92quywfbdcel-fill" data-item-order="-216117" transform="translate(284, 287)"></g><g id="g-root-sy_-1_Line_2_4mxcugfbdd6u-fill" data-item-order="-216113" transform="translate(284, 233)"></g><g id="g-root-sy_-1_Line_3_1hhkdagfbdc7j-fill" data-item-order="-216109" transform="translate(284, 179)"></g><g id="g-root-sy_-1_Line_4_18lxd1kfbdds0-fill" data-item-order="-216105" transform="translate(284, 125)"></g><g id="g-root-ic_hand_1lwrebsfbg64t-fill" data-item-order="-900" transform="translate(242, 164)"><g id="ic_hand_1lwrebsfbg64t-fill" stroke="none" fill="#1eabda"><g><path d="M 20.375 30.362501C 21.065355 30.362501 21.625 29.802856 21.625 29.112499L 21.625 28.75C 21.627899 28.603832 21.731752 28.47921 21.875 28.450001C 23.315744 28.181232 24.398354 26.981421 24.518129 25.520723C 24.637907 24.060026 23.765217 22.699881 22.387501 22.200001L 19.2875 20.950001C 18.940693 20.818071 18.739202 20.455645 18.810192 20.091446C 18.88118 19.727247 19.204033 19.467022 19.575001 19.475L 22.625 19.475C 23.315355 19.475 23.875 18.915356 23.875 18.225C 23.875 17.534643 23.315355 16.975 22.625 16.975L 21.9375 16.975C 21.764912 16.975 21.625 16.835089 21.625 16.6625L 21.625 16.362499C 21.625 15.672144 21.065355 15.1125 20.375 15.1125C 19.684645 15.1125 19.125 15.672144 19.125 16.362499L 19.125 16.775C 19.127068 16.922974 19.02092 17.050348 18.875 17.075001C 17.448812 17.361332 16.384483 18.557261 16.2656 20.007042C 16.146719 21.456821 17.002008 22.81016 18.362499 23.325001L 21.4625 24.575001C 21.74958 24.695522 21.936663 24.976147 21.9375 25.2875C 21.9375 25.708616 21.596117 26.049999 21.174999 26.049999L 18.125 26.049999C 17.434645 26.049999 16.875 26.609644 16.875 27.299999C 16.875 27.990356 17.434645 28.549999 18.125 28.549999L 18.8125 28.549999C 18.949253 28.540926 19.075962 28.622019 19.125 28.75L 19.125 29.0625C 19.111385 29.402596 19.237045 29.733538 19.472958 29.978888C 19.70887 30.224236 20.034632 30.362774 20.375 30.362501ZM 29.8125 25.725C 30.17288 26.07826 30.710327 26.180174 31.175013 25.983364C 31.6397 25.786556 31.940464 25.329636 31.9375 24.824999L 31.9375 12.8625C 31.9375 11.481789 30.818213 10.3625 29.4375 10.3625L 13.1875 10.3625C 11.806788 10.3625 10.6875 11.481789 10.6875 12.8625L 10.6875 34.737503C 10.6875 36.11821 11.806788 37.237503 13.1875 37.237503L 26.3125 37.237503C 27.002855 37.237503 27.5625 36.677856 27.5625 35.987503C 27.5625 35.297142 27.002855 34.737503 26.3125 34.737503L 14.4375 34.737503C 13.747144 34.737503 13.1875 34.177856 13.1875 33.487503L 13.1875 14.1125C 13.1875 13.422144 13.747144 12.8625 14.4375 12.8625L 28.1875 12.8625C 28.877855 12.8625 29.4375 13.422144 29.4375 14.1125L 29.4375 24.824999C 29.435524 25.163391 29.570829 25.488127 29.8125 25.725ZM 10 10M 26.25 29.550001L 30.825001 34.725002C 30.874756 34.77956 30.901611 34.851173 30.9 34.924999L 30.9 38.125C 30.933315 38.593185 31.065378 39.049015 31.2875 39.462502C 31.341171 39.565907 31.446091 39.632675 31.562498 39.637497L 39 39.637497C 39.118126 39.638397 39.22578 39.569885 39.274998 39.462498C 39.330822 39.36581 39.330822 39.246689 39.275002 39.150002L 37.5 36.512497C 37.481815 36.455582 37.481815 36.394417 37.5 36.337502L 37.5 29.049999C 37.5 27.387501 36.025002 25.762499 34.412502 24.400002C 34.31456 24.332893 34.18544 24.332893 34.087502 24.400002C 33.973251 24.44986 33.899567 24.562847 33.900002 24.6875L 33.900002 29.625C 33.901405 29.696251 33.923088 29.765627 33.962502 29.825001C 34.269501 30.194654 34.242344 30.737816 33.900002 31.075001C 33.725967 31.253262 33.486614 31.352615 33.237499 31.35C 32.991215 31.350481 32.754116 31.256538 32.575001 31.087498L 28.325001 26.887501C 27.663715 26.468109 26.799419 26.567036 26.25 27.125C 25.629627 27.814304 25.629627 28.860699 26.250002 29.550001Z"></path></g></g></g><g id="g-root-ic_bask_hte2iwfbn764-fill" data-item-order="-900" transform="translate(242, 218)"><g id="ic_bask_hte2iwfbn764-fill" stroke="none" fill="#92bd39"><g><path d="M 21.11375 12.44625C 21.438696 12.132407 21.569016 11.667652 21.454622 11.230616C 21.340227 10.793579 20.99892 10.452272 20.561884 10.337878C 20.124847 10.223484 19.660093 10.353805 19.346251 10.67875L 13.72125 16.303751C 13.644001 16.380964 13.577185 16.467953 13.5225 16.5625L 12.73 16.5625C 11.92625 16.5625 11.2525 17.0075 10.83375 17.5875C 10.415 18.165001 10.20125 18.9375 10.37125 19.6975L 12.99625 30.955L 13.0125 31.01C 13.3225 31.9375 14.1375 32.8125 15.355 32.8125L 20.237499 32.8125C 18.594454 28.718689 20.58119 24.068048 24.675001 22.425001C 28.76881 20.781954 33.419453 22.76869 35.0625 26.862501C 35.397499 26.674999 35.759998 26.53125 36.142498 26.4375L 37.713749 19.705L 37.716251 19.6975C 37.885002 18.938749 37.671249 18.165001 37.252499 17.58625C 36.833748 17.0075 36.16 16.5625 35.355 16.5625L 34.438751 16.5625C 34.383701 16.467863 34.31646 16.380869 34.23875 16.303751L 28.61375 10.67875C 28.299908 10.353805 27.835152 10.223484 27.398115 10.337878C 26.961079 10.452272 26.619774 10.793579 26.505379 11.230616C 26.390984 11.667652 26.521305 12.132407 26.846251 12.44625L 30.962502 16.5625L 17 16.5625L 21.112501 12.44625ZM 28.1875 26.9375C 28.1875 25.556789 29.306789 24.4375 30.6875 24.4375C 32.068211 24.4375 33.1875 25.556789 33.1875 26.9375C 33.1875 28.318213 32.068211 29.4375 30.6875 29.4375C 29.306789 29.4375 28.1875 28.318213 28.1875 26.9375ZM 21.5625 30.6875C 21.5625 29.306789 22.681787 28.1875 24.0625 28.1875C 25.443213 28.1875 26.5625 29.306789 26.5625 30.6875C 26.5625 32.068211 25.443213 33.1875 24.0625 33.1875C 22.681787 33.1875 21.5625 32.068211 21.5625 30.6875ZM 34.6875 30.6875C 34.6875 29.306789 35.806786 28.1875 37.1875 28.1875C 38.568214 28.1875 39.6875 29.306789 39.6875 30.6875C 39.6875 32.068211 38.568214 33.1875 37.1875 33.1875C 35.806786 33.1875 34.6875 32.068211 34.6875 30.6875ZM 29.4375 32.1875C 29.732586 31.794054 30.195692 31.5625 30.687502 31.5625C 31.17931 31.5625 31.642416 31.794054 31.937502 32.1875L 35.682499 37.18C 36.541248 38.267502 35.637501 39.6875 34.4375 39.6875L 26.9375 39.6875C 25.737499 39.6875 24.83375 38.267502 25.692499 37.18L 29.4375 32.1875Z"></path></g></g></g><g id="g-root-ic_navi_djtb9kfbreh7-fill" data-item-order="-900" transform="translate(242, 272)"><g id="ic_navi_djtb9kfbreh7-fill" stroke="none" fill="#3cc583"><g><path d="M 31.450001 27.6C 31.529398 27.9132 31.792053 28.14612 32.112499 28.1875C 32.417988 28.240211 32.719181 28.074034 32.837498 27.787498L 40 11.05C 40.107693 10.766179 40.033672 10.44543 39.8125 10.2375C 39.608852 9.976766 39.258415 9.880268 38.950001 10L 22.212502 17.1625C 21.925962 17.280817 21.759787 17.582012 21.812498 17.887499C 21.850479 18.209482 22.084869 18.473793 22.4 18.549999L 29.625 20.375ZM 18.5625 26.699999L 18.5625 25.275C 19.466854 24.969 20.016668 24.053213 19.861609 23.11117C 19.706551 22.169125 18.892221 21.477875 17.9375 21.477875C 16.982779 21.477875 16.168449 22.169125 16.01339 23.11117C 15.858332 24.053213 16.408146 24.969 17.3125 25.275L 17.3125 26.699999C 13.186938 27.031887 10.006195 30.473614 10 34.612499L 10 37.787498C 10 39.00943 10.99057 40 12.2125 40L 23.65 40C 24.871929 40 25.862499 39.00943 25.862499 37.787498L 25.862499 34.612499C 25.85684 30.478041 22.683121 27.038034 18.5625 26.699999ZM 21.0625 30.225C 21.645025 30.219934 22.173014 30.566938 22.399456 31.103676C 22.625896 31.640411 22.506016 32.260746 22.095894 32.674461C 21.685774 33.088181 21.066511 33.213474 20.527819 32.99173C 19.989124 32.769985 19.637522 32.245049 19.637499 31.6625C 19.630518 30.880297 20.255384 30.238693 21.0375 30.225ZM 14.8125 30.225C 15.606409 30.224998 16.25 30.868589 16.25 31.6625C 16.25 32.456406 15.606409 33.099998 14.8125 33.099998C 14.018591 33.099998 13.375 32.456406 13.375 31.6625C 13.371568 31.27803 13.523643 30.908491 13.796687 30.6378C 14.069733 30.367107 14.440576 30.218239 14.825 30.225ZM 23.975 37.787498C 23.975 37.973896 23.823896 38.125 23.637501 38.125L 12.2125 38.125C 12.026104 38.125 11.875 37.973896 11.875 37.787502L 11.875 35.549999L 23.987499 35.549999Z"></path></g></g></g><g id="g-root-ic_auto_hwifygfbeqro-fill" data-item-order="-900" transform="translate(242, 110)"><g id="ic_auto_hwifygfbeqro-fill" stroke="none" fill="#e0cb15"><g><path d="M 25 19.375C 23.791878 19.375 22.8125 20.354378 22.8125 21.5625L 22.8125 24.0625C 22.8125 24.235088 22.952412 24.375 23.125 24.375L 26.875 24.375C 27.047588 24.375 27.1875 24.235088 27.1875 24.0625L 27.1875 21.5625C 27.18067 20.357216 26.205282 19.381828 25 19.375ZM 10 10M 38.475002 23.9L 35.400002 20.825001C 35.345982 20.762199 35.315102 20.682795 35.3125 20.599998L 35.3125 16.25C 35.3125 15.387055 34.612946 14.6875 33.75 14.6875L 29.400002 14.6875C 29.317205 14.684897 29.237799 14.654017 29.174999 14.599999L 26.1 11.525C 25.809 11.231874 25.413042 11.067017 25 11.067017C 24.586958 11.067017 24.191 11.231874 23.9 11.525L 20.825001 14.6C 20.762199 14.654017 20.682795 14.684897 20.599998 14.6875L 16.25 14.6875C 15.387055 14.6875 14.6875 15.387055 14.6875 16.25L 14.6875 20.599998C 14.684897 20.682795 14.654017 20.762199 14.599999 20.825001L 11.525 23.9C 11.231874 24.191 11.067017 24.586958 11.067017 25C 11.067017 25.413042 11.231874 25.809 11.525 26.1L 14.6 29.174999C 14.654017 29.237799 14.684897 29.317205 14.6875 29.4L 14.6875 33.75C 14.6875 34.612946 15.387055 35.3125 16.25 35.3125L 20.599998 35.3125C 20.682795 35.315102 20.762199 35.345982 20.825001 35.400002L 23.9 38.475002C 24.191 38.768127 24.586958 38.932983 25 38.932983C 25.413042 38.932983 25.809 38.768127 26.1 38.475002L 29.174999 35.400002C 29.237799 35.345982 29.317205 35.315102 29.4 35.3125L 33.75 35.3125C 34.612946 35.3125 35.3125 34.612946 35.3125 33.75L 35.3125 29.400002C 35.315102 29.317205 35.345982 29.237799 35.400002 29.174999L 38.475002 26.1C 38.768127 25.809 38.932983 25.413042 38.932983 25C 38.932983 24.586958 38.768127 24.191 38.475002 23.9ZM 23.125 26.25C 22.952412 26.25 22.8125 26.389912 22.8125 26.5625L 22.8125 31.5625C 22.8125 32.080265 22.392767 32.5 21.875 32.5C 21.357233 32.5 20.9375 32.080265 20.9375 31.5625L 20.9375 21.5625C 20.9375 19.318844 22.756344 17.5 25 17.5C 27.243656 17.5 29.0625 19.318844 29.0625 21.5625L 29.0625 31.5625C 29.0625 32.080265 28.642767 32.5 28.125 32.5C 27.607233 32.5 27.1875 32.080265 27.1875 31.5625L 27.1875 26.5625C 27.1875 26.389912 27.047588 26.25 26.875 26.25Z"></path></g></g></g><g id="g-root-ic_1_1q7l3rcfbu6mc-fill" data-item-order="-900" transform="translate(242, 326)"><g id="ic_1_1q7l3rcfbu6mc-fill" stroke="none" fill="#4e88e7"><g><path d="M 10 10M 27.0875 31.925001L 22.4 30.525C 22.271616 30.481647 22.185799 30.360497 22.1875 30.225L 22.1875 24.512499C 22.1875 23.822144 21.627857 23.262499 20.9375 23.262499C 20.247143 23.262499 19.6875 23.822144 19.6875 24.512499L 19.6875 33.349998C 19.678495 33.482883 19.589325 33.596825 19.4625 33.637497C 19.33383 33.68425 19.189831 33.637966 19.112499 33.525002C 17.25 30.85 14.2875 31.712502 15.6625 33.75L 19.299999 39.212502C 19.41765 39.386589 19.614901 39.489906 19.825001 39.487499L 26.612499 39.487499C 26.915283 39.491558 27.175589 39.27375 27.225 38.974998C 27.474998 37.599998 28.0625 34.375 28.200001 33.775002C 28.363695 32.963371 27.881144 32.160927 27.0875 31.924999ZM 15.15 18.75C 12.172421 21.755203 11.654725 26.414476 13.9 29.999998C 14.171784 30.416059 14.723754 30.543013 15.150001 30.287502C 15.555099 30.008171 15.679857 29.465744 15.4375 29.037498C 13.798579 26.472473 13.956511 23.152481 15.831516 20.754612C 17.70652 18.356741 20.890471 17.402933 23.775 18.375C 23.867073 18.431309 23.982927 18.431309 24.075001 18.375C 24.162609 18.302113 24.201355 18.185877 24.174999 18.074999C 24.085854 17.663631 24.031494 17.245489 24.012501 16.825001C 24.006824 16.684055 23.910881 16.562862 23.775 16.525C 20.708748 15.702554 17.435747 16.546894 15.15 18.75ZM 27.625 29C 27.382643 29.428244 27.507401 29.970671 27.9125 30.249998C 28.339788 30.498789 28.886841 30.372965 29.1625 29.9625C 30.285221 28.185585 30.749641 26.071369 30.475002 23.987501C 30.459929 23.853853 30.357752 23.746569 30.224998 23.724998C 29.800219 23.650692 29.382177 23.542002 28.974998 23.4C 28.882927 23.343691 28.767073 23.343691 28.674999 23.4C 28.589399 23.474691 28.547117 23.587439 28.5625 23.700001C 28.949568 25.521387 28.613392 27.421913 27.625 29ZM 31.5625 10.4625C 28.28331 10.4625 25.625 13.12081 25.625 16.4C 25.625 19.67919 28.28331 22.3375 31.5625 22.3375C 34.84169 22.3375 37.5 19.67919 37.5 16.4C 37.5 13.12081 34.84169 10.4625 31.5625 10.4625ZM 31.5625 20.4625C 29.318844 20.4625 27.500002 18.643658 27.500002 16.4C 27.500002 14.156343 29.318844 12.337501 31.5625 12.337501C 33.806156 12.337501 35.625 14.156343 35.625 16.4C 35.625 18.643658 33.806156 20.462502 31.5625 20.4625ZM 33.75 15.4625L 32.799999 15.4625C 32.632309 15.455788 32.499866 15.317822 32.5 15.15L 32.5 14.1875C 32.5 13.669733 32.080265 13.25 31.5625 13.25C 31.044733 13.25 30.625 13.669733 30.625 14.1875L 30.625 16.4C 30.625 16.917767 31.044733 17.3375 31.5625 17.3375L 33.75 17.3375C 34.267765 17.3375 34.6875 16.917767 34.6875 16.4C 34.6875 15.882234 34.267765 15.462501 33.75 15.462501Z"></path></g></g></g><g id="g-root-tx__v483t4fber65-fill" data-item-order="0" transform="translate(134, 188)"><g id="tx__v483t4fber65-fill" stroke="none" fill="#32444a"><g><text style="font: 10px Roboto, sans-serif; white-space: pre;" font-size="10px" font-family="Roboto, sans-serif"><tspan x="19.4" y="22" dominant-baseline="ideographic">إنشاء وتتبع الفواتير بسهولة</tspan></text></g></g></g><g id="g-root-tx__24214fberye-fill" data-item-order="0" transform="translate(170, 212)"><g id="tx__24214fberye-fill" stroke="none" fill="#92bd39"><g><text style="font: bold 11.7px Roboto, sans-serif; white-space: pre;" font-weight="bold" font-size="11.7px" font-family="Roboto, sans-serif"><tspan x="14" y="28.6" dominant-baseline="ideographic">إدارة المنتجات</tspan></text></g></g></g><g id="g-root-tx__1hap5c8fberyc-fill" data-item-order="0" transform="translate(170, 158)"><g id="tx__1hap5c8fberyc-fill" stroke="none" fill="#1eabda"><g><text style="font: bold 11.7px Roboto, sans-serif; white-space: pre;" font-weight="bold" font-size="11.7px" font-family="Roboto, sans-serif"><tspan x="13.64" y="28.6" dominant-baseline="ideographic">إصدار الفواتير</tspan></text></g></g></g><g id="g-root-tx__18gxkcofberrb-fill" data-item-order="0" transform="translate(122, 242)"><g id="tx__18gxkcofberrb-fill" stroke="none" fill="#424736"><g><text style="font: 10px Roboto, sans-serif; white-space: pre;" font-size="10px" font-family="Roboto, sans-serif"><tspan x="15.21" y="22" dominant-baseline="ideographic">إدارة المنتجات والمخزون بكفاءة</tspan></text></g></g></g><g id="g-root-tx__m7c5e0fbeqkj-fill" data-item-order="0" transform="translate(110, 134)"><g id="tx__m7c5e0fbeqkj-fill" stroke="none" fill="#46432d"><g><text style="font: 10px Roboto, sans-serif; white-space: pre;" font-size="10px" font-family="Roboto, sans-serif"><tspan x="16.08" y="22" dominant-baseline="ideographic">واجهة سهلة الاستخدام باللغة العربية</tspan></text></g></g></g><g id="g-root-tx__hun0p4fberrc-fill" data-item-order="0" transform="translate(146, 266)"><g id="tx__hun0p4fberrc-fill" stroke="none" fill="#3cc583"><g><text style="font: bold 11.7px Roboto, sans-serif; white-space: pre;" font-weight="bold" font-size="11.7px" font-family="Roboto, sans-serif"><tspan x="11.7" y="28.6" dominant-baseline="ideographic">موقع إلكتروني تلقائي</tspan></text></g></g></g><g id="g-root-tx__4jszewfbeq6h-fill" data-item-order="0" transform="translate(134, 296)"><g id="tx__4jszewfbeq6h-fill" stroke="none" fill="#374840"><g><text style="font: 10px Roboto, sans-serif; white-space: pre;" font-size="10px" font-family="Roboto, sans-serif"><tspan x="20.2" y="22" dominant-baseline="ideographic">إنشاء موقع إلكتروني تلقائيًا</tspan></text></g></g></g><g id="g-root-tx__1uu9tu0fbdcsq-fill" data-item-order="0" transform="translate(170, 104)"><g id="tx__1uu9tu0fbdcsq-fill" stroke="none" fill="#e0cb15"><g><text style="font: bold 11.7px Roboto, sans-serif; white-space: pre;" font-weight="bold" font-size="11.7px" font-family="Roboto, sans-serif"><tspan x="18.43" y="28.6" dominant-baseline="ideographic">واجهة عربية</tspan></text></g></g></g><g id="g-root-tx__1ltn0w8fbesci-fill" data-item-order="0" transform="translate(170, 320)"><g id="tx__1ltn0w8fbesci-fill" stroke="none" fill="#4e88e7"><g><text style="font: bold 11.7px Roboto, sans-serif; white-space: pre;" font-weight="bold" font-size="11.7px" font-family="Roboto, sans-serif"><tspan x="19.39" y="28.6" dominant-baseline="ideographic">تسجيل سريع</tspan></text></g></g></g><g id="g-root-tx_smartsel_vb3brcfbdc75-fill" data-item-order="0" transform="translate(226, 38)"><g id="tx_smartsel_vb3brcfbdc75-fill" stroke="none" fill="#484848"><g><text style="font: 20px Roboto, sans-serif; white-space: pre;" font-size="20px" font-family="Roboto, sans-serif"><tspan x="13.18" y="34" dominant-baseline="ideographic">هرم ميزات Smart-Seller</tspan></text></g></g></g><g id="g-root-tx__18iszm0fbeqrn-fill" data-item-order="0" transform="translate(134, 350)"><g id="tx__18iszm0fbeqrn-fill" stroke="none" fill="#3a4455"><g><text style="font: 10px Roboto, sans-serif; white-space: pre;" font-size="10px" font-family="Roboto, sans-serif"><tspan x="19.72" y="22" dominant-baseline="ideographic">عملية تسجيل بسيطة وفعالة</tspan></text></g></g></g><g id="g-root-cp_5_g-5_1ur5gegfbdbm2-stroke" data-item-order="-216206" transform="translate(319.4959716796875, 323)"><g id="cp_5_g-5_1ur5gegfbdbm2-stroke" fill="none" stroke-linecap="round" stroke-linejoin="round" stroke-miterlimit="4" stroke="#ffffff" stroke-width="2"><g><path d="M 287.0654 10L 33.9439 10L 10 52L 311.0094 52L 287.0654 10Z"></path></g></g></g><g id="g-root-cp_4_g-4_1hfoy14fbdd70-stroke" data-item-order="-216202" transform="translate(350.281005859375, 269)"><g id="cp_4_g-4_1hfoy14fbdd70-stroke" fill="none" stroke-linecap="round" stroke-linejoin="round" stroke-miterlimit="4" stroke="#ffffff" stroke-width="2"><g><path d="M 225.4953 10L 33.9439 10L 10 52L 249.4393 52L 225.4953 10Z"></path></g></g></g><g id="g-root-cp_3_g-3_1czvfwofbddza-stroke" data-item-order="-216198" transform="translate(381.0660400390625, 215)"><g id="cp_3_g-3_1czvfwofbddza-stroke" fill="none" stroke-linecap="round" stroke-linejoin="round" stroke-miterlimit="4" stroke="#ffffff" stroke-width="2"><g><path d="M 163.9252 10L 33.9439 10L 10 52L 187.8691 52L 163.9252 10Z"></path></g></g></g><g id="g-root-cp_2_g-2_18koevcfbdbls-stroke" data-item-order="-216194" transform="translate(411.85003662109375, 161)"><g id="cp_2_g-2_18koevcfbdbls-stroke" fill="none" stroke-linecap="round" stroke-linejoin="round" stroke-miterlimit="4" stroke="#ffffff" stroke-width="2"><g><path d="M 102.3551 10L 33.9439 10L 10 52L 126.2991 52L 102.3551 10Z"></path></g></g></g><g id="g-root-cp_1_g-1_zp1emgfbdcei-stroke" data-item-order="-216190" transform="translate(442.63702392578125, 101)"><g id="cp_1_g-1_zp1emgfbdcei-stroke" fill="none" stroke-linecap="round" stroke-linejoin="round" stroke-miterlimit="4" stroke="#ffffff" stroke-width="2"><g><path d="M 64.7289 58L 37.3645 10L 10 58L 64.7289 58Z"></path></g></g></g><g id="g-root-sy_-1_Line_hydv7sfbdblw-stroke" data-item-order="-216121" transform="translate(284, 341)"><g id="sy_-1_Line_hydv7sfbdblw-stroke" fill="none" stroke-linecap="round" stroke-linejoin="round" stroke-miterlimit="4" stroke="#484848" stroke-width="2"><g><path d="M 10 10L 43 10"></path><path d="M 37 16.5L 43.5 10L 37 3.5" stroke-dasharray="none"></path></g></g></g><g id="g-root-sy_-1_Line_1_92quywfbdcel-stroke" data-item-order="-216117" transform="translate(284, 287)"><g id="sy_-1_Line_1_92quywfbdcel-stroke" fill="none" stroke-linecap="round" stroke-linejoin="round" stroke-miterlimit="4" stroke="#484848" stroke-width="2"><g><path d="M 10 10L 74 10"></path><path d="M 68 16.5L 74.5 10L 68 3.5" stroke-dasharray="none"></path></g></g></g><g id="g-root-sy_-1_Line_2_4mxcugfbdd6u-stroke" data-item-order="-216113" transform="translate(284, 233)"><g id="sy_-1_Line_2_4mxcugfbdd6u-stroke" fill="none" stroke-linecap="round" stroke-linejoin="round" stroke-miterlimit="4" stroke="#484848" stroke-width="2"><g><path d="M 10 10L 105 10"></path><path d="M 99 16.5L 105.5 10L 99 3.5" stroke-dasharray="none"></path></g></g></g><g id="g-root-sy_-1_Line_3_1hhkdagfbdc7j-stroke" data-item-order="-216109" transform="translate(284, 179)"><g id="sy_-1_Line_3_1hhkdagfbdc7j-stroke" fill="none" stroke-linecap="round" stroke-linejoin="round" stroke-miterlimit="4" stroke="#484848" stroke-width="2"><g><path d="M 10 10L 136 10"></path><path d="M 130 16.5L 136.5 10L 130 3.5" stroke-dasharray="none"></path></g></g></g><g id="g-root-sy_-1_Line_4_18lxd1kfbdds0-stroke" data-item-order="-216105" transform="translate(284, 125)"><g id="sy_-1_Line_4_18lxd1kfbdds0-stroke" fill="none" stroke-linecap="round" stroke-linejoin="round" stroke-miterlimit="4" stroke="#484848" stroke-width="2"><g><path d="M 10 10L 167 10"></path><path d="M 161 16.5L 167.5 10L 161 3.5" stroke-dasharray="none"></path></g></g></g><g id="g-root-ic_hand_1lwrebsfbg64t-stroke" data-item-order="-900" transform="translate(242, 164)"></g><g id="g-root-ic_bask_hte2iwfbn764-stroke" data-item-order="-900" transform="translate(242, 218)"></g><g id="g-root-ic_navi_djtb9kfbreh7-stroke" data-item-order="-900" transform="translate(242, 272)"></g><g id="g-root-ic_auto_hwifygfbeqro-stroke" data-item-order="-900" transform="translate(242, 110)"></g><g id="g-root-ic_1_1q7l3rcfbu6mc-stroke" data-item-order="-900" transform="translate(242, 326)"></g><g id="g-root-tx__v483t4fber65-stroke" data-item-order="0" transform="translate(134, 188)"></g><g id="g-root-tx__24214fberye-stroke" data-item-order="0" transform="translate(170, 212)"></g><g id="g-root-tx__1hap5c8fberyc-stroke" data-item-order="0" transform="translate(170, 158)"></g><g id="g-root-tx__18gxkcofberrb-stroke" data-item-order="0" transform="translate(122, 242)"></g><g id="g-root-tx__m7c5e0fbeqkj-stroke" data-item-order="0" transform="translate(110, 134)"></g><g id="g-root-tx__hun0p4fberrc-stroke" data-item-order="0" transform="translate(146, 266)"></g><g id="g-root-tx__4jszewfbeq6h-stroke" data-item-order="0" transform="translate(134, 296)"></g><g id="g-root-tx__1uu9tu0fbdcsq-stroke" data-item-order="0" transform="translate(170, 104)"></g><g id="g-root-tx__1ltn0w8fbesci-stroke" data-item-order="0" transform="translate(170, 320)"></g><g id="g-root-tx_smartsel_vb3brcfbdc75-stroke" data-item-order="0" transform="translate(226, 38)"></g><g id="g-root-tx__18iszm0fbeqrn-stroke" data-item-order="0" transform="translate(134, 350)"></g></g></g><path id="wmb3fpkflplvq" d="M65.283 12.757a.35.35 0 0 0 .584.157l5.203-5.141-6.183 3.523.396 1.461zm-2.216-11.7a.35.35 0 0 0-.522.305v3.111l3.276-1.868-2.754-1.548zm3.728 2.105l-4.25 2.421v2.445l6.391-3.644-2.141-1.222zm4.708 3.303a.35.35 0 0 0 0-.609l-1.592-.9-7.365 4.199v1.782a.35.35 0 0 0 .523.305l8.435-4.777z M44.542 2.513c0-.433.355-.783.792-.783s.792.35.792.783-.355.783-.792.783-.792-.35-.792-.783zm59.171 0c0-.433.355-.783.792-.783s.792.35.792.783-.355.783-.792.783-.792-.35-.792-.783zm-85.951 7.636h-1.27v-.487c-.276.201-.864.609-1.881.609-1.202 0-2.274-.794-2.137-2.078.118-1.106 1.153-1.584 1.848-1.727l2.17-.345c0-.539-.29-.956-1.064-1.006s-1.21.305-1.571 1.017l-1.124-.605c1.218-2.631 5.029-1.764 5.029.414v4.207zm-1.27-2.86c.006.396-.062 1.112-.819 1.59-.587.37-1.841.299-1.903-.395-.049-.555.461-.791.906-.898l1.816-.297zm72.662 2.86h-1.27v-.487c-.276.201-.864.609-1.881.609-1.202 0-2.274-.794-2.137-2.078.118-1.106 1.153-1.584 1.848-1.727l2.17-.345c0-.539-.29-.956-1.064-1.006s-1.21.305-1.571 1.017l-1.124-.605c1.218-2.631 5.029-1.764 5.029.414v4.207zm-1.27-2.86c.006.396-.062 1.112-.82 1.59-.587.37-1.841.299-1.903-.395-.049-.555.461-.791.906-.898l1.816-.297zM99.096 10.149H97.85v-8.45h1.246v4.895l2.68-2.559h1.738l-2.633 2.535 2.715 3.578h-1.556l-2.077-2.707-.867.844v1.863zm6.053-6.114h-1.255v6.113h1.255V4.035zm-59.2 0h-1.255v6.113h1.255V4.035zm5.584 6.113V1.697h1.255v2.695c.361-.346 1-.485 1.47-.485 1.452 0 2.477 1.082 2.457 2.448v3.792h-1.27v-3.68c0-.408-.214-1.339-1.315-1.339-.968 0-1.342.756-1.342 1.339v3.681h-1.255zm-4.76-4.894V4.039h.621a.45.45 0 0 0 .45-.45v-.855h1.251v1.305h1.309v1.215h-1.309v3.109c0 .293.105.664.648.664.365 0 .531-.035.736-.07v1.137s-.361.113-.857.113c-1.398 0-1.777-1.051-1.777-1.788V5.254h-1.071zM36.528 4.039h-1.394l2.191 6.106h1.125l1.234-3.918 1.238 3.918h1.129l2.188-6.106h-1.383l-1.359 3.93-1.256-3.93h-1.124l-1.242 3.957-1.348-3.957zM26.212 7.141c-.02 1.566 1.187 3.129 3.223 3.129 1.566 0 2.383-.918 2.734-1.719L31.172 8c-.315.399-.801 1.094-1.738 1.094-1.145 0-1.825-.781-1.891-1.52h4.625c.074-.284.148-.995-.03-1.559-.336-1.064-1.221-2.102-2.839-2.102s-3.088 1.152-3.088 3.227zm1.363-.75h3.348c-.055-.43-.566-1.301-1.623-1.301a1.79 1.79 0 0 0-1.725 1.301zm-8.758.75c.038 1.758 1.277 3.133 3.145 3.133 1.074 0 1.723-.477 1.961-.672v.547h1.242V1.703h-1.258v2.888c-.414-.36-1.062-.68-1.93-.68-1.91 0-3.198 1.473-3.16 3.23zm1.309-.08c0 1.119.723 1.978 1.836 1.978a1.88 1.88 0 0 0 1.94-1.904c0-1.371-1.011-1.99-1.972-1.99s-1.805.798-1.805 1.916zm76.683-.028C96.771 5.275 95.532 3.9 93.664 3.9c-1.074 0-1.723.477-1.961.672v-.547h-1.242v8.22h1.258V9.583c.414.36 1.063.68 1.93.68 1.91 0 3.198-1.473 3.16-3.23zm-1.309.08c0-1.119-.723-1.978-1.836-1.978a1.88 1.88 0 0 0-1.94 1.904c0 1.371 1.011 1.99 1.972 1.99S95.5 8.231 95.5 7.113zM106.441 10.173V4.036h1.254v.382c.361-.346 1-.485 1.47-.485 1.452 0 2.477 1.082 2.457 2.448v3.792h-1.27V6.492c0-.408-.214-1.339-1.315-1.339-.969 0-1.342.756-1.342 1.339v3.681h-1.254zm-30.383-.021V1.824h1.084l4.215 5.777V1.824h1.32v8.328h-1.094l-4.207-5.796v5.796h-1.319zM5.24 10.149H4V2.377h1.014l2.664 3.597 2.654-3.592h1.03v7.766h-1.256V4.762L7.678 8.068 5.24 4.742v5.407z" transform="translate(528, 413)" fill="#80808088" stroke="none"></path></svg>