<?xml version="1.0" encoding="utf-8" standalone="yes"?>
<!DOCTYPE svg PUBLIC "-//W3C//DTD SVG 1.1//EN" "http://www.w3.org/Graphics/SVG/1.1/DTD/svg11.dtd">
<svg width="854" height="648" viewBox="0 0 854 648" style="fill:none;stroke:none;fill-rule:evenodd;clip-rule:evenodd;stroke-linecap:round;stroke-linejoin:round;stroke-miterlimit:1.5;" version="1.1" xmlns="http://www.w3.org/2000/svg" xmlns:xlink="http://www.w3.org/1999/xlink"><style class="text-font-style fontImports" data-font-family="Roboto">@import url('https://fonts.googleapis.com/css2?family=Roboto:wght@400;700&amp;display=block');</style><g id="items" style="isolation: isolate"><g id="blend" style="mix-blend-mode: normal"><g id="g-root-cp_4_g-4_1lrskegdxfdvw-fill" data-item-order="-437176" transform="translate(47, 98)"><g id="cp_4_g-4_1lrskegdxfdvw-fill" stroke="none" fill="#e0cb15"><g><path d="M 445.1679 104.6186C 489.4934 96.1708 523 56.7959 523 10L 328 10C 328 10 277.9236 10 250.5 10C 117.6652 10 10 117.3506 10 249.7741C 10 372.9328 103.1429 474.4041 223.0352 488C 130.1405 474.6659 58.743 394.7406 58.743 298.1357C 58.743 192.1969 144.5852 106 250.5 106L 430 106C 432.8479 105.9452 439.7958 105.8452 445.1679 104.6186Z"></path></g></g></g><g id="g-root-cp_3_g-3_18gyj48dxfcb2-fill" data-item-order="-437172" transform="translate(94.99977111816406, 194)"><g id="cp_3_g-3_18gyj48dxfcb2-fill" stroke="none" fill="#4e88e7"><g><path d="M 374.411206 101.5782C 412.289106 88.6605 439.000006 51.9861 439.000006 10L 203.012306 10C 96.476906 10 10.000006 96.7375 10.000006 202.5C 10.000006 308.2625 96.476906 394 203.012306 394C 204.596306 394 205.925206 394.0377 207.500006 394C 129.495706 391.8436 67.000006 328.4597 67.000006 250.5C 67.000006 171.1781 131.952006 106.75 211.853606 106.75L 333.013906 106.75C 333.013906 106.75 360.743206 106.75 374.411206 101.5782Z"></path></g></g></g><g id="g-root-cp_2_g-2_zlbivcdxfdvk-fill" data-item-order="-437168" transform="translate(152, 290)"><g id="cp_2_g-2_zlbivcdxfdvk-fill" stroke="none" fill="#1eabda"><g><path d="M 298.7763 92.7198C 327.0408 76.0172 346 45.224 346 10C 346 10 303.0453 10.7108 250.058 10.7108L 139.5243 10.7107C 66.7992 17.9344 10 79.3301 10 154C 10 233.529 74.4321 298 153.913 298C 100.9257 298 57.971 255.0193 57.971 202C 57.971 148.9807 100.9257 106 153.913 106L 250.058 106C 263.25 106 275.6425 106 298.7763 92.7198ZM 164.7065 297.3993C 161.1635 297.7962 157.562 298 153.913 298C 157.7293 298 161.5109 297.8514 165.2523 297.5596"></path></g></g></g><g id="g-root-cp_1_g-1_qpoimgdxfeoa-fill" data-item-order="-437164" transform="translate(200, 386)"><g id="cp_1_g-1_qpoimgdxfeoa-fill" stroke="none" fill="#3cc583"><g><path d="M 10 106C 10.000003 159.019339 52.980667 202.000003 106.000003 202.000003C 159.019339 202.000003 202.000003 159.019339 202.000003 106.000003C 202.000003 52.980667 159.019339 10.000003 106.000003 10.000003C 52.980667 10.000003 10.000003 52.980667 10.000003 106.000003"></path></g></g></g><g id="g-root-tx__deuhc8dxfd3f-fill" data-item-order="0" transform="translate(322, 38)"><g id="tx__deuhc8dxfd3f-fill" stroke="none" fill="#484848"><g><text style="font: 20px Roboto, sans-serif; white-space: pre;" font-size="20px" font-family="Roboto, sans-serif"><tspan x="15.31" y="34" dominant-baseline="ideographic">استراتيجيات التطوير المستقبلي</tspan></text></g></g></g><g id="g-root-tx__1luwxu0dxff2i-fill" data-item-order="0" transform="translate(604, 110)"><g id="tx__1luwxu0dxff2i-fill" stroke="none" fill="#46432d"><g><text style="font: 15px Roboto, sans-serif; white-space: pre;" font-size="15px" font-family="Roboto, sans-serif"><tspan x="12" y="30.6" dominant-baseline="ideographic">تعزيز مشاركة العملاء وولائهم</tspan></text></g></g></g><g id="g-root-tx__18k2wjsdxfdhn-fill" data-item-order="0" transform="translate(340, 134)"><g id="tx__18k2wjsdxfdhn-fill" stroke="none" fill="#ffffff"><g><text style="font: bold 20px Roboto, sans-serif; white-space: pre;" font-weight="bold" font-size="20px" font-family="Roboto, sans-serif"><tspan x="13.79" y="34" dominant-baseline="ideographic">تنبيهات وعروض للعملاء</tspan></text></g></g></g><g id="g-root-tx__59e88dxfdop-fill" data-item-order="0" transform="translate(568, 206)"><g id="tx__59e88dxfdop-fill" stroke="none" fill="#3a4455"><g><text style="font: 15px Roboto, sans-serif; white-space: pre;" font-size="15px" font-family="Roboto, sans-serif"><tspan x="12" y="30.6" dominant-baseline="ideographic">توفير رؤى لاتخاذ قرارات مستنيرة</tspan></text></g></g></g><g id="g-root-tx__dgpwlkdxfc3s-fill" data-item-order="0" transform="translate(328, 230)"><g id="tx__dgpwlkdxfc3s-fill" stroke="none" fill="#ffffff"><g><text style="font: bold 20px Roboto, sans-serif; white-space: pre;" font-weight="bold" font-size="20px" font-family="Roboto, sans-serif"><tspan x="16.08" y="34" dominant-baseline="ideographic">تقارير وتحليلات ذكية</tspan></text></g></g></g><g id="g-root-tx__1430g94dxfc3q-fill" data-item-order="0" transform="translate(532, 302)"><g id="tx__1430g94dxfc3q-fill" stroke="none" fill="#32444a"><g><text style="font: 15px Roboto, sans-serif; white-space: pre;" font-size="15px" font-family="Roboto, sans-serif"><tspan x="12" y="30.6" dominant-baseline="ideographic">تبسيط الخدمات اللوجستية والتسليم</tspan></text></g></g></g><g id="g-root-tx__qrjxvsdxfdon-fill" data-item-order="0" transform="translate(268, 326)"><g id="tx__qrjxvsdxfdon-fill" stroke="none" fill="#ffffff"><g><text style="font: bold 20px Roboto, sans-serif; white-space: pre;" font-weight="bold" font-size="20px" font-family="Roboto, sans-serif"><tspan x="11.55" y="34" dominant-baseline="ideographic">التكامل مع شركات الشحن</tspan></text></g></g></g><g id="g-root-tx__1upazwodxfc3o-fill" data-item-order="0" transform="translate(436, 446)"><g id="tx__1upazwodxfc3o-fill" stroke="none" fill="#374840"><g><text style="font: 15px Roboto, sans-serif; white-space: pre;" font-size="15px" font-family="Roboto, sans-serif"><tspan x="12" y="30.6" dominant-baseline="ideographic">تمكين معاملات آمنة ومريحة</tspan></text></g></g></g><g id="g-root-tx__1hduhjcdxfdol-fill" data-item-order="0" transform="translate(218, 470)"><g id="tx__1hduhjcdxfdol-fill" stroke="none" fill="#ffffff"><g><text style="font: bold 20px Roboto, sans-serif; white-space: pre;" font-weight="bold" font-size="20px" font-family="Roboto, sans-serif"><tspan x="14.91" y="34" dominant-baseline="ideographic">إضافة الدفع الإلكتروني</tspan></text></g></g></g><g id="g-root-cp_4_g-4_1lrskegdxfdvw-stroke" data-item-order="-437176" transform="translate(47, 98)"><g id="cp_4_g-4_1lrskegdxfdvw-stroke" fill="none" stroke-linecap="round" stroke-linejoin="round" stroke-miterlimit="4" stroke="#ffffff" stroke-width="2"><g><path d="M 445.1679 104.6186C 489.4934 96.1708 523 56.7959 523 10L 328 10C 328 10 277.9236 10 250.5 10C 117.6652 10 10 117.3506 10 249.7741C 10 372.9328 103.1429 474.4041 223.0352 488C 130.1405 474.6659 58.743 394.7406 58.743 298.1357C 58.743 192.1969 144.5852 106 250.5 106L 430 106C 432.8479 105.9452 439.7958 105.8452 445.1679 104.6186Z"></path></g></g></g><g id="g-root-cp_3_g-3_18gyj48dxfcb2-stroke" data-item-order="-437172" transform="translate(94.99977111816406, 194)"><g id="cp_3_g-3_18gyj48dxfcb2-stroke" fill="none" stroke-linecap="round" stroke-linejoin="round" stroke-miterlimit="4" stroke="#ffffff" stroke-width="2"><g><path d="M 374.411206 101.5782C 412.289106 88.6605 439.000006 51.9861 439.000006 10L 203.012306 10C 96.476906 10 10.000006 96.7375 10.000006 202.5C 10.000006 308.2625 96.476906 394 203.012306 394C 204.596306 394 205.925206 394.0377 207.500006 394C 129.495706 391.8436 67.000006 328.4597 67.000006 250.5C 67.000006 171.1781 131.952006 106.75 211.853606 106.75L 333.013906 106.75C 333.013906 106.75 360.743206 106.75 374.411206 101.5782Z"></path></g></g></g><g id="g-root-cp_2_g-2_zlbivcdxfdvk-stroke" data-item-order="-437168" transform="translate(152, 290)"><g id="cp_2_g-2_zlbivcdxfdvk-stroke" fill="none" stroke-linecap="round" stroke-linejoin="round" stroke-miterlimit="4" stroke="#ffffff" stroke-width="2"><g><path d="M 298.7763 92.7198C 327.0408 76.0172 346 45.224 346 10C 346 10 303.0453 10.7108 250.058 10.7108L 139.5243 10.7107C 66.7992 17.9344 10 79.3301 10 154C 10 233.529 74.4321 298 153.913 298C 100.9257 298 57.971 255.0193 57.971 202C 57.971 148.9807 100.9257 106 153.913 106L 250.058 106C 263.25 106 275.6425 106 298.7763 92.7198ZM 164.7065 297.3993C 161.1635 297.7962 157.562 298 153.913 298C 157.7293 298 161.5109 297.8514 165.2523 297.5596"></path></g></g></g><g id="g-root-cp_1_g-1_qpoimgdxfeoa-stroke" data-item-order="-437164" transform="translate(200, 386)"><g id="cp_1_g-1_qpoimgdxfeoa-stroke" fill="none" stroke-linecap="round" stroke-linejoin="round" stroke-miterlimit="4" stroke="#ffffff" stroke-width="2"><g><path d="M 10 106C 10.000003 159.019339 52.980667 202.000003 106.000003 202.000003C 159.019339 202.000003 202.000003 159.019339 202.000003 106.000003C 202.000003 52.980667 159.019339 10.000003 106.000003 10.000003C 52.980667 10.000003 10.000003 52.980667 10.000003 106.000003"></path></g></g></g><g id="g-root-tx__deuhc8dxfd3f-stroke" data-item-order="0" transform="translate(322, 38)"></g><g id="g-root-tx__1luwxu0dxff2i-stroke" data-item-order="0" transform="translate(604, 110)"></g><g id="g-root-tx__18k2wjsdxfdhn-stroke" data-item-order="0" transform="translate(340, 134)"></g><g id="g-root-tx__59e88dxfdop-stroke" data-item-order="0" transform="translate(568, 206)"></g><g id="g-root-tx__dgpwlkdxfc3s-stroke" data-item-order="0" transform="translate(328, 230)"></g><g id="g-root-tx__1430g94dxfc3q-stroke" data-item-order="0" transform="translate(532, 302)"></g><g id="g-root-tx__qrjxvsdxfdon-stroke" data-item-order="0" transform="translate(268, 326)"></g><g id="g-root-tx__1upazwodxfc3o-stroke" data-item-order="0" transform="translate(436, 446)"></g><g id="g-root-tx__1hduhjcdxfdol-stroke" data-item-order="0" transform="translate(218, 470)"></g></g></g><path id="w1q6cbwoehmzgs" d="M65.283 12.757a.35.35 0 0 0 .584.157l5.203-5.141-6.183 3.523.396 1.461zm-2.216-11.7a.35.35 0 0 0-.522.305v3.111l3.276-1.868-2.754-1.548zm3.728 2.105l-4.25 2.421v2.445l6.391-3.644-2.141-1.222zm4.708 3.303a.35.35 0 0 0 0-.609l-1.592-.9-7.365 4.199v1.782a.35.35 0 0 0 .523.305l8.435-4.777z M44.542 2.513c0-.433.355-.783.792-.783s.792.35.792.783-.355.783-.792.783-.792-.35-.792-.783zm59.171 0c0-.433.355-.783.792-.783s.792.35.792.783-.355.783-.792.783-.792-.35-.792-.783zm-85.951 7.636h-1.27v-.487c-.276.201-.864.609-1.881.609-1.202 0-2.274-.794-2.137-2.078.118-1.106 1.153-1.584 1.848-1.727l2.17-.345c0-.539-.29-.956-1.064-1.006s-1.21.305-1.571 1.017l-1.124-.605c1.218-2.631 5.029-1.764 5.029.414v4.207zm-1.27-2.86c.006.396-.062 1.112-.819 1.59-.587.37-1.841.299-1.903-.395-.049-.555.461-.791.906-.898l1.816-.297zm72.662 2.86h-1.27v-.487c-.276.201-.864.609-1.881.609-1.202 0-2.274-.794-2.137-2.078.118-1.106 1.153-1.584 1.848-1.727l2.17-.345c0-.539-.29-.956-1.064-1.006s-1.21.305-1.571 1.017l-1.124-.605c1.218-2.631 5.029-1.764 5.029.414v4.207zm-1.27-2.86c.006.396-.062 1.112-.82 1.59-.587.37-1.841.299-1.903-.395-.049-.555.461-.791.906-.898l1.816-.297zM99.096 10.149H97.85v-8.45h1.246v4.895l2.68-2.559h1.738l-2.633 2.535 2.715 3.578h-1.556l-2.077-2.707-.867.844v1.863zm6.053-6.114h-1.255v6.113h1.255V4.035zm-59.2 0h-1.255v6.113h1.255V4.035zm5.584 6.113V1.697h1.255v2.695c.361-.346 1-.485 1.47-.485 1.452 0 2.477 1.082 2.457 2.448v3.792h-1.27v-3.68c0-.408-.214-1.339-1.315-1.339-.968 0-1.342.756-1.342 1.339v3.681h-1.255zm-4.76-4.894V4.039h.621a.45.45 0 0 0 .45-.45v-.855h1.251v1.305h1.309v1.215h-1.309v3.109c0 .293.105.664.648.664.365 0 .531-.035.736-.07v1.137s-.361.113-.857.113c-1.398 0-1.777-1.051-1.777-1.788V5.254h-1.071zM36.528 4.039h-1.394l2.191 6.106h1.125l1.234-3.918 1.238 3.918h1.129l2.188-6.106h-1.383l-1.359 3.93-1.256-3.93h-1.124l-1.242 3.957-1.348-3.957zM26.212 7.141c-.02 1.566 1.187 3.129 3.223 3.129 1.566 0 2.383-.918 2.734-1.719L31.172 8c-.315.399-.801 1.094-1.738 1.094-1.145 0-1.825-.781-1.891-1.52h4.625c.074-.284.148-.995-.03-1.559-.336-1.064-1.221-2.102-2.839-2.102s-3.088 1.152-3.088 3.227zm1.363-.75h3.348c-.055-.43-.566-1.301-1.623-1.301a1.79 1.79 0 0 0-1.725 1.301zm-8.758.75c.038 1.758 1.277 3.133 3.145 3.133 1.074 0 1.723-.477 1.961-.672v.547h1.242V1.703h-1.258v2.888c-.414-.36-1.062-.68-1.93-.68-1.91 0-3.198 1.473-3.16 3.23zm1.309-.08c0 1.119.723 1.978 1.836 1.978a1.88 1.88 0 0 0 1.94-1.904c0-1.371-1.011-1.99-1.972-1.99s-1.805.798-1.805 1.916zm76.683-.028C96.771 5.275 95.532 3.9 93.664 3.9c-1.074 0-1.723.477-1.961.672v-.547h-1.242v8.22h1.258V9.583c.414.36 1.063.68 1.93.68 1.91 0 3.198-1.473 3.16-3.23zm-1.309.08c0-1.119-.723-1.978-1.836-1.978a1.88 1.88 0 0 0-1.94 1.904c0 1.371 1.011 1.99 1.972 1.99S95.5 8.231 95.5 7.113zM106.441 10.173V4.036h1.254v.382c.361-.346 1-.485 1.47-.485 1.452 0 2.477 1.082 2.457 2.448v3.792h-1.27V6.492c0-.408-.214-1.339-1.315-1.339-.969 0-1.342.756-1.342 1.339v3.681h-1.254zm-30.383-.021V1.824h1.084l4.215 5.777V1.824h1.32v8.328h-1.094l-4.207-5.796v5.796h-1.319zM5.24 10.149H4V2.377h1.014l2.664 3.597 2.654-3.592h1.03v7.766h-1.256V4.762L7.678 8.068 5.24 4.742v5.407z" transform="translate(718, 614)" fill="#80808088" stroke="none"></path></svg>