<?xml version="1.0" encoding="utf-8" standalone="yes"?>
<!DOCTYPE svg PUBLIC "-//W3C//DTD SVG 1.1//EN" "http://www.w3.org/Graphics/SVG/1.1/DTD/svg11.dtd">
<svg width="624" height="444" viewBox="0 0 624 444" style="fill:none;stroke:none;fill-rule:evenodd;clip-rule:evenodd;stroke-linecap:round;stroke-linejoin:round;stroke-miterlimit:1.5;" version="1.1" xmlns="http://www.w3.org/2000/svg" xmlns:xlink="http://www.w3.org/1999/xlink"><style class="text-font-style fontImports" data-font-family="Roboto">@import url('https://fonts.googleapis.com/css2?family=Roboto:wght@400;700&amp;display=block');</style><g id="items" style="isolation: isolate"><g id="blend" style="mix-blend-mode: normal"><g id="g-root-cp_1_g-1_mdkpxkfvmeiu-fill" data-item-order="-200438" transform="translate(42.928985595703125, 110)"><g id="cp_1_g-1_mdkpxkfvmeiu-fill" stroke="none" fill="#1eabda"><g><path d="M 10.0076 94L 52.1342 94C 52.0584 93.2724 52.0205 92.5258 52.0205 91.76C 52.0205 84.8533 54.5279 79.72 59.5427 76.36C 64.5575 73 71.3015 71.32 79.7748 71.32C 87.7292 71.32 94.3004 73.1867 99.4881 76.92C 104.6758 80.4667 107.702 84.6667 108.5666 89.52C 108.8498 91.1099 110.221 92.8758 111.604 93.6225C 111.875 93.7687 112.172 93.8937 112.487 94L 112.485 94C 113.775 94.4366 115.355 94.56 116.606 94.56L 145.917 94.56C 146.815 94.56 147.628 94.3733 148.353 94L 148.354 94C 148.885 93.7267 149.37 93.3534 149.809 92.88C 150.846 91.5733 151.365 90.1733 151.365 88.68C 151.192 81.96 148.944 75.0533 144.621 67.96C 140.471 60.68 134.332 54.24 126.205 48.64C 118.25 42.8533 108.3072 38.9333 96.3755 36.88L 96.3755 17C 96.3755 14.9467 95.7702 13.2667 94.5598 11.96C 93.3493 10.6533 91.8794 10 90.1502 10L 71.7338 10C 69.8316 10 68.2753 10.6533 67.0648 11.96C 65.8544 13.2667 65.2491 14.9467 65.2491 17L 65.2491 36.32C 47.9568 38.7467 34.3823 45.0933 24.5256 55.36C 14.8419 65.6267 10 78.1333 10 92.88C 10 93.2553 10.0025 93.6287 10.0076 94Z"></path></g></g></g><g id="g-root-cp_2_g-2_hydow8fvmc5c-fill" data-item-order="-200434" transform="translate(42.936004638671875, 194)"><g id="cp_2_g-2_hydow8fvmc5c-fill" stroke="none" fill="#3cc583"><g><path d="M 157.055 94C 157.061 93.6281 157.064 93.2548 157.064 92.88C 157.064 81.68 154.816 72.44 150.32 65.16C 145.997 57.6933 139.08 51.6267 129.569 46.96C 120.058 42.2933 107.6944 38.28 92.4771 34.92C 82.4475 32.12 74.493 29.6 68.6136 27.36C 62.7342 24.9333 58.4976 22.2267 55.9037 19.24C 53.7532 16.6091 52.4942 13.5291 52.1266 10L 10 10C 10.1456 20.7098 12.3911 29.7631 16.7365 37.16C 21.4054 44.6267 28.2359 50.7867 37.2279 55.64C 46.22 60.3067 57.2007 64.1333 70.1699 67.12C 81.0641 69.92 89.7103 72.5333 96.1085 74.96C 102.6796 77.3867 107.435 80.0933 110.375 83.08C 113.306 85.8924 114.857 89.5324 115.028 94L 157.055 94Z"></path></g></g></g><g id="g-root-cp_3_g-3_92qoncfvmcy2-fill" data-item-order="-200430" transform="translate(38, 275.76220703125)"><g id="cp_3_g-3_92qoncfvmcy2-fill" stroke="none" fill="#92bd39"><g><path d="M 49.9241 12.2383C 49.7073 12.044 49.479 11.8571 49.2388 11.6719C 48.0283 10.5519 45.7084 10 43.4604 10L 15.7061 10C 14.1498 10 12.7664 10.6533 11.5559 11.96C 11.4711 12.0515 11.3898 12.1443 11.312 12.2383L 11.3109 12.2383C 10.437 13.2944 10 14.5077 10 15.8783C 10.3459 24.2783 12.7668 32.3049 17.2628 39.9583C 21.7588 47.6116 28.4164 54.1449 37.2355 59.5583C 46.0546 64.7849 57.0353 68.2383 70.1775 69.9183L 70.1775 89.2383C 70.1775 91.2916 70.7827 92.9716 71.9932 94.2783C 73.2036 95.585 74.7599 96.2383 76.6621 96.2383L 95.0785 96.2383C 96.8077 96.2383 98.2776 95.585 99.4881 94.2783C 100.6985 92.9716 101.3038 91.2916 101.3038 89.2383L 101.3038 69.9183C 113.581 68.2383 124.216 64.8783 133.208 59.8383C 142.373 54.7983 149.463 48.1716 154.478 39.9583C 159.319 31.8491 161.823 22.6091 161.991 12.2383L 119.964 12.2383C 119.974 12.5151 119.98 12.7951 119.98 13.0783C 119.98 19.7983 117.126 25.1183 111.42 29.0383C 105.8862 32.9583 97.4994 34.9183 86.2594 34.9183C 79.3424 34.9183 73.5495 33.985 68.8806 32.1183C 64.2116 30.065 60.4937 27.545 57.727 24.5583C 55.1331 21.5716 53.231 18.4916 52.0205 15.3183C 51.4896 13.9265 50.8014 13.0226 49.9264 12.2383L 49.9241 12.2383Z"></path></g></g></g><g id="g-root-cp_1_text-1_4mx6iwfvmdqc-fill" data-item-order="-200421" transform="translate(290, 116)"></g><g id="g-root-cp_2_text-2_1use894fvmeby-fill" data-item-order="-200405" transform="translate(290, 212)"></g><g id="g-root-cp_3_text-3_1lxdp3cfvmcqo-fill" data-item-order="-200391" transform="translate(290, 296)"></g><g id="g-root-ic_sync_1uu9nigfvmdcd-fill" data-item-order="-2304" transform="translate(230, 122)"><g id="ic_sync_1uu9nigfvmdcd-fill" stroke="none" fill="#1eabda"><g><path d="M 44 18.26L 44 17.58C 44.011105 14.936783 41.883148 12.782003 39.239998 12.76L 14.780001 12.76C 12.129024 12.771023 9.988932 14.929024 10 17.58L 10 18.200001ZM 43.66 25.82C 43.912483 25.789488 44.101837 25.574314 44.099998 25.32L 44.099998 21.32L 10 21.32L 10 32.940002C 9.988895 35.594265 12.125805 37.757996 14.780001 37.779999L 29.18 37.779999C 29.40551 37.77092 29.599419 37.617409 29.659998 37.399998C 31.469978 31.007805 37.041782 26.399126 43.66 25.82ZM 16.66 29.26L 22.34 29.26C 23.168427 29.26 23.84 29.931574 23.84 30.76C 23.84 31.588428 23.168427 32.260002 22.34 32.260002L 16.66 32.260002C 15.831573 32.260002 15.16 31.588428 15.16 30.76C 15.16 29.931574 15.831573 29.26 16.66 29.26ZM 45.220001 55.259998C 50.442493 55.259754 55.087605 51.94067 56.779999 47C 57.043358 46.316944 56.912483 45.544582 56.438801 44.98642C 55.965122 44.428253 55.224335 44.173485 54.507538 44.322227C 53.790741 44.47097 53.212486 44.999451 53 45.700001C 52.057049 48.449272 49.73233 50.496201 46.885818 51.083576C 44.039307 51.670952 41.094212 50.711445 39.139999 48.560001C 38.959435 48.361595 38.959435 48.058399 39.139999 47.859997L 42.599998 44.400002C 42.880119 44.1143 42.962975 43.689129 42.810631 43.319153C 42.658287 42.949173 42.300076 42.70562 41.900002 42.700001L 33 42.700001C 32.447716 42.700001 32 43.147717 32 43.700001L 32 52.599998C 31.993849 53.010975 32.239792 53.383858 32.620003 53.540001C 32.992043 53.684223 33.414021 53.598267 33.699997 53.32L 35.700001 51.32C 35.795097 51.224976 35.92569 51.174191 36.059998 51.179996C 36.192471 51.184162 36.319519 51.23357 36.419998 51.32C 38.68792 53.785912 41.87011 55.210663 45.219997 55.259998ZM 54.240002 33.059998C 54.144897 33.155022 54.014309 33.205803 53.879997 33.199997C 53.748154 33.192856 53.622032 33.14381 53.52 33.059998C 50.582874 29.970171 46.245941 28.637575 42.080578 29.545044C 37.915215 30.452511 34.52565 33.468407 33.139999 37.5C 32.87664 38.183056 33.007519 38.955414 33.481201 39.51358C 33.95488 40.071747 34.695663 40.326515 35.41246 40.177773C 36.129257 40.02903 36.707512 39.500549 36.919998 38.799999C 37.886833 36.085175 40.204777 34.074928 43.029079 33.501884C 45.853382 32.928833 48.771515 33.876686 50.720001 36C 50.900562 36.198402 50.900562 36.501595 50.719997 36.699997L 47.380001 40C 47.085571 40.283775 46.99358 40.718216 47.147724 41.096973C 47.301868 41.475731 47.671085 41.722473 48.080002 41.720001L 57 41.720001C 57.552284 41.720001 58 41.272285 58 40.720001L 58 31.719999C 58.003517 31.314613 57.757065 30.948908 57.380001 30.800001C 57.141674 30.709274 56.878323 30.709274 56.639996 30.799999C 56.510479 30.854176 56.394417 30.9361 56.299995 31.039999Z"></path></g></g></g><g id="g-root-ic_incr_8xqvygfvp534-fill" data-item-order="-2304" transform="translate(230, 218)"><g id="ic_incr_8xqvygfvp534-fill" stroke="none" fill="#3cc583"><g><path d="M 45.599998 10C 44.993717 10.000533 44.447369 10.36599 44.215427 10.926153C 43.983486 11.486316 44.111561 12.131026 44.540001 12.56L 47.576 15.596001L 44.099998 19.071999L 40.514 15.486C 39.747097 14.718825 38.50843 14.702854 37.722 15.45L 25.722 26.85C 24.921436 27.611097 24.889324 28.877035 25.650272 29.677742C 26.411219 30.478449 27.677151 30.510798 28.477999 29.75L 39.063999 19.692001L 42.683998 23.313999C 43.059135 23.689554 43.56818 23.900574 44.098999 23.900574C 44.629818 23.900574 45.138863 23.689554 45.514 23.313999L 50.403999 18.424L 53.439999 21.459999C 53.868977 21.888441 54.513687 22.016518 55.073849 21.784575C 55.63401 21.552631 55.99947 21.006283 56 20.400002L 56 11.5C 56 10.671573 55.32843 10 54.5 10L 45.599998 10ZM 34.27 14.592L 28.577999 20L 15.18 20C 14.627715 20 14.18 20.447716 14.18 21L 14.18 47.938C 14.18 48.490284 14.627715 48.938 15.18 48.938L 31.812 48.938C 32.364285 48.938 32.812 48.490284 32.812 47.938L 32.812 29.768L 37 25.793999L 37 51.099998C 37.005867 52.931786 36.280792 54.690239 34.985516 55.985516C 33.690239 57.280792 31.931787 58.005867 30.1 58L 16.9 58C 15.068213 58.005867 13.309759 57.280792 12.014484 55.985516C 10.719209 54.690239 9.994131 52.931786 10 51.099998L 10 20.1C 9.994131 18.268213 10.719209 16.50976 12.014484 15.214484C 13.309759 13.919209 15.068213 13.194132 16.9 13.2L 30.1 13.2C 31.672001 13.2 33.115997 13.718 34.271999 14.592Z"></path></g></g></g><g id="g-root-ic_repo_hvvsjsfvql8j-fill" data-item-order="-2304" transform="translate(230, 302)"><g id="ic_repo_hvvsjsfvql8j-fill" stroke="none" fill="#92bd39"><g><path d="M 23.959999 37.771999L 23.959999 14.326L 48.099998 14.326L 53.672001 19.897999L 53.672001 53.674L 23.959999 53.674C 23.939564 52.569427 23.027569 51.690563 21.923 51.710999C 20.81843 51.731434 19.939566 52.643429 19.959999 53.747997C 19.959999 54.779999 20.313999 55.796001 21.076 56.557999C 21.84 57.321999 22.855999 57.674 23.888 57.674L 53.748001 57.674C 54.782001 57.674 55.798 57.321999 56.560001 56.557999C 57.324001 55.798 57.675999 54.779999 57.675999 53.748001L 57.675999 19.84C 57.681374 19.303581 57.5737 18.772043 57.360001 18.279999C 57.154152 17.830309 56.866615 17.422737 56.512001 17.077999L 50.924 11.49C 50.578529 11.135864 50.170265 10.848996 49.720001 10.644C 49.228378 10.428744 48.696648 10.320354 48.16 10.326L 23.886 10.326C 22.852001 10.326 21.838001 10.68 21.074001 11.442C 20.312 12.204 19.958 13.222 19.958 14.252L 19.958 37.771999C 19.958 38.876572 20.853432 39.771999 21.958 39.771999C 23.062569 39.771999 23.958 38.876572 23.958 37.771999ZM 46.692001 21.086C 46.692001 19.98143 45.79657 19.086 44.692001 19.086C 43.587429 19.086 42.692001 19.98143 42.692001 21.086L 42.692001 21.439999C 41.082001 22.174 39.996002 23.784 39.996002 25.709999C 39.97805 26.961056 40.466976 28.166161 41.351509 29.051071C 42.236038 29.93598 43.440937 30.425417 44.692001 30.408001L 44.728001 30.408001C 45.144001 30.42 45.388 30.677999 45.388 31.104C 45.388 31.540001 45.127998 31.799999 44.692001 31.799999C 44.5797 31.806902 44.467216 31.78986 44.362 31.75C 43.867706 30.761963 42.666039 30.361706 41.678001 30.856001C 40.689964 31.350296 40.289703 32.551964 40.784 33.540001C 41.23 34.431999 41.916 35.028 42.692001 35.384003L 42.692001 35.919998C 42.692001 37.024567 43.587429 37.919998 44.692001 37.919998C 45.79657 37.919998 46.692001 37.024567 46.692001 35.919998L 46.692001 35.374001C 48.304001 34.639999 49.389999 33.028 49.389999 31.104C 49.407963 29.852592 48.918766 28.647175 48.033794 27.762205C 47.148827 26.877235 45.943409 26.388039 44.692001 26.406L 44.655998 26.406C 44.242001 26.392 43.995998 26.134001 43.995998 25.709999C 43.995998 25.274 44.256001 25.012001 44.692001 25.012001C 44.723999 25.012001 44.773998 25.015999 44.889999 25.07C 45.037998 25.138 45.198002 25.24 45.509998 25.448C 46.429001 26.061035 47.670963 25.813002 48.284 24.894001C 48.897034 23.974998 48.649002 22.733036 47.73 22.119999L 47.647999 22.066C 47.343307 21.854076 47.023823 21.664257 46.691998 21.497999L 46.692001 21.086ZM 19.68 47.998001C 18.736612 50.102837 16.450674 51.262238 14.195091 50.779877C 11.93951 50.29752 10.327703 48.304581 10.327703 45.997997C 10.327703 43.691418 11.93951 41.698479 14.195091 41.216118C 16.450674 40.733761 18.736612 41.893162 19.68 43.997997L 42.576 43.998001C 43.680569 43.998001 44.576 44.893429 44.576 45.998001C 44.576 47.10257 43.680569 47.998001 42.576 47.998001L 19.678001 47.998001ZM 30.243999 27.448C 29.139431 27.448 28.243999 28.34343 28.243999 29.448C 28.243999 30.55257 29.139431 31.448 30.243999 31.448L 34.959999 31.448C 36.064568 31.448 36.959999 30.55257 36.959999 29.448C 36.959999 28.34343 36.064568 27.448 34.959999 27.448L 30.246 27.448ZM 28.243999 37.440002C 28.243999 36.33543 29.139431 35.440002 30.243999 35.440002L 34.959999 35.440002C 36.064568 35.440002 36.959999 36.33543 36.959999 37.440002C 36.959999 38.544571 36.064568 39.440002 34.959999 39.440002L 30.246 39.440002C 29.14143 39.440002 28.246 38.544571 28.246 37.440002ZM 30.243999 19.374001C 29.139431 19.374001 28.243999 20.26943 28.243999 21.374001C 28.243999 22.478569 29.139431 23.374001 30.243999 23.374001L 34.959999 23.374001C 36.064568 23.374001 36.959999 22.478569 36.959999 21.374001C 36.959999 20.26943 36.064568 19.374001 34.959999 19.374001L 30.246 19.374001Z"></path></g></g></g><g id="g-root-tx__zqwnk8fvmbyi-fill" data-item-order="0" transform="translate(212, 38)"><g id="tx__zqwnk8fvmbyi-fill" stroke="none" fill="#484848"><g><text style="font: 20px Roboto, sans-serif; white-space: pre;" font-size="20px" font-family="Roboto, sans-serif"><tspan x="12.07" y="34" dominant-baseline="ideographic">استراتيجيات توليد الإيرادات</tspan></text></g></g></g><g id="g-root-tx__hzmn2gfvmebn-fill" data-item-order="0" transform="translate(302, 116)"><g id="tx__hzmn2gfvmebn-fill" stroke="none" fill="#1eabda"><g><text style="font: bold 20px Roboto, sans-serif; white-space: pre;" font-weight="bold" font-size="20px" font-family="Roboto, sans-serif"><tspan x="12" y="34" dominant-baseline="ideographic">الاشتراكات</tspan></text></g></g></g><g id="g-root-tx__94m3wofvmbyk-fill" data-item-order="0" transform="translate(302, 152)"><g id="tx__94m3wofvmbyk-fill" stroke="none" fill="#32444a"><g><text style="font: 15px Roboto, sans-serif; white-space: pre;" font-size="15px" font-family="Roboto, sans-serif"><tspan x="12" y="27.6" dominant-baseline="ideographic">إيرادات متكررة من الاشتراكات الشهرية أو </tspan><tspan x="12" y="45.6" dominant-baseline="ideographic">السنوية</tspan></text></g></g></g><g id="g-root-tx__qoefd4fvp5vq-fill" data-item-order="0" transform="translate(302, 212)"><g id="tx__qoefd4fvp5vq-fill" stroke="none" fill="#3cc583"><g><text style="font: bold 20px Roboto, sans-serif; white-space: pre;" font-weight="bold" font-size="20px" font-family="Roboto, sans-serif"><tspan x="12" y="34" dominant-baseline="ideographic">عمولة على المبيعات الإلكترونية</tspan></text></g></g></g><g id="g-root-tx__dcxwzsfvp7gn-fill" data-item-order="0" transform="translate(302, 248)"><g id="tx__dcxwzsfvp7gn-fill" stroke="none" fill="#374840"><g><text style="font: 15px Roboto, sans-serif; white-space: pre;" font-size="15px" font-family="Roboto, sans-serif"><tspan x="12" y="30.6" dominant-baseline="ideographic">نسبة من المبيعات الإلكترونية المستقبلية</tspan></text></g></g></g><g id="g-root-tx__zmjbygfvqm15-fill" data-item-order="0" transform="translate(302, 296)"><g id="tx__zmjbygfvqm15-fill" stroke="none" fill="#92bd39"><g><text style="font: bold 20px Roboto, sans-serif; white-space: pre;" font-weight="bold" font-size="20px" font-family="Roboto, sans-serif"><tspan x="12" y="34" dominant-baseline="ideographic">الخدمات المدفوعة</tspan></text></g></g></g><g id="g-root-tx__mbpao8fvqkga-fill" data-item-order="0" transform="translate(302, 332)"><g id="tx__mbpao8fvqkga-fill" stroke="none" fill="#424736"><g><text style="font: 15px Roboto, sans-serif; white-space: pre;" font-size="15px" font-family="Roboto, sans-serif"><tspan x="12" y="30.6" dominant-baseline="ideographic">رسوم للخدمات الإضافية مثل الدفع والتوصيل</tspan></text></g></g></g><g id="g-root-cp_1_g-1_mdkpxkfvmeiu-stroke" data-item-order="-200438" transform="translate(42.928985595703125, 110)"><g id="cp_1_g-1_mdkpxkfvmeiu-stroke" fill="none" stroke-linecap="round" stroke-linejoin="round" stroke-miterlimit="4" stroke="#ffffff" stroke-width="2"><g><path d="M 10.0076 94L 52.1342 94C 52.0584 93.2724 52.0205 92.5258 52.0205 91.76C 52.0205 84.8533 54.5279 79.72 59.5427 76.36C 64.5575 73 71.3015 71.32 79.7748 71.32C 87.7292 71.32 94.3004 73.1867 99.4881 76.92C 104.6758 80.4667 107.702 84.6667 108.5666 89.52C 108.8498 91.1099 110.221 92.8758 111.6044 93.6225C 111.8753 93.7687 112.1724 93.8937 112.4865 94L 112.4854 94C 113.7754 94.4366 115.3548 94.56 116.6064 94.56L 145.9169 94.56C 146.8155 94.56 147.6275 94.3733 148.3531 94L 148.3543 94C 148.8855 93.7267 149.3704 93.3534 149.8089 92.88C 150.8464 91.5733 151.3652 90.1733 151.3652 88.68C 151.1923 81.96 148.9443 75.0533 144.6212 67.96C 140.471 60.68 134.3322 54.24 126.2048 48.64C 118.2503 42.8533 108.3072 38.9333 96.3755 36.88L 96.3755 17C 96.3755 14.9467 95.7702 13.2667 94.5598 11.96C 93.3493 10.6533 91.8794 10 90.1502 10L 71.7338 10C 69.8316 10 68.2753 10.6533 67.0648 11.96C 65.8544 13.2667 65.2491 14.9467 65.2491 17L 65.2491 36.32C 47.9568 38.7467 34.3823 45.0933 24.5256 55.36C 14.8419 65.6267 10 78.1333 10 92.88C 10 93.2553 10.0025 93.6287 10.0076 94Z"></path></g></g></g><g id="g-root-cp_2_g-2_hydow8fvmc5c-stroke" data-item-order="-200434" transform="translate(42.936004638671875, 194)"><g id="cp_2_g-2_hydow8fvmc5c-stroke" fill="none" stroke-linecap="round" stroke-linejoin="round" stroke-miterlimit="4" stroke="#ffffff" stroke-width="2"><g><path d="M 157.0551 94C 157.0611 93.6281 157.0641 93.2548 157.0641 92.88C 157.0641 81.68 154.8161 72.44 150.3201 65.16C 145.997 57.6933 139.08 51.6267 129.5692 46.96C 120.0584 42.2933 107.6944 38.28 92.4771 34.92C 82.4475 32.12 74.493 29.6 68.6136 27.36C 62.7342 24.9333 58.4976 22.2267 55.9037 19.24C 53.7532 16.6091 52.4942 13.5291 52.1266 10L 10 10C 10.1456 20.7098 12.3911 29.7631 16.7365 37.16C 21.4054 44.6267 28.2359 50.7867 37.2279 55.64C 46.22 60.3067 57.2007 64.1333 70.1699 67.12C 81.0641 69.92 89.7103 72.5333 96.1085 74.96C 102.6796 77.3867 107.435 80.0933 110.3747 83.08C 113.3057 85.8924 114.8567 89.5324 115.0277 94L 157.0551 94Z"></path></g></g></g><g id="g-root-cp_3_g-3_92qoncfvmcy2-stroke" data-item-order="-200430" transform="translate(38, 275.76220703125)"><g id="cp_3_g-3_92qoncfvmcy2-stroke" fill="none" stroke-linecap="round" stroke-linejoin="round" stroke-miterlimit="4" stroke="#ffffff" stroke-width="2"><g><path d="M 49.9241 12.2383C 49.7073 12.044 49.479 11.8571 49.2388 11.6719C 48.0283 10.5519 45.7084 10 43.4604 10L 15.7061 10C 14.1498 10 12.7664 10.6533 11.5559 11.96C 11.4711 12.0515 11.3898 12.1443 11.312 12.2383L 11.3109 12.2383C 10.437 13.2944 10 14.5077 10 15.8783C 10.3459 24.2783 12.7668 32.3049 17.2628 39.9583C 21.7588 47.6116 28.4164 54.1449 37.2355 59.5583C 46.0546 64.7849 57.0353 68.2383 70.1775 69.9183L 70.1775 89.2383C 70.1775 91.2916 70.7827 92.9716 71.9932 94.2783C 73.2036 95.585 74.7599 96.2383 76.6621 96.2383L 95.0785 96.2383C 96.8077 96.2383 98.2776 95.585 99.4881 94.2783C 100.6985 92.9716 101.3038 91.2916 101.3038 89.2383L 101.3038 69.9183C 113.5814 68.2383 124.2162 64.8783 133.2082 59.8383C 142.3732 54.7983 149.463 48.1716 154.4778 39.9583C 159.319 31.8491 161.8234 22.6091 161.991 12.2383L 119.9636 12.2383C 119.9742 12.5151 119.9795 12.7951 119.9795 13.0783C 119.9795 19.7983 117.1263 25.1183 111.4198 29.0383C 105.8862 32.9583 97.4994 34.9183 86.2594 34.9183C 79.3424 34.9183 73.5495 33.985 68.8806 32.1183C 64.2116 30.065 60.4937 27.545 57.727 24.5583C 55.1331 21.5716 53.231 18.4916 52.0205 15.3183C 51.4896 13.9265 50.8014 13.0226 49.9264 12.2383L 49.9241 12.2383Z"></path></g></g></g><g id="g-root-cp_1_text-1_4mx6iwfvmdqc-stroke" data-item-order="-200421" transform="translate(290, 116)"><g id="cp_1_text-1_4mx6iwfvmdqc-stroke" fill="none" stroke-linecap="round" stroke-linejoin="round" stroke-miterlimit="4" stroke="#1eabda" stroke-width="2"><g><path d="M 10 10L 10 82"></path></g></g></g><g id="g-root-cp_2_text-2_1use894fvmeby-stroke" data-item-order="-200405" transform="translate(290, 212)"><g id="cp_2_text-2_1use894fvmeby-stroke" fill="none" stroke-linecap="round" stroke-linejoin="round" stroke-miterlimit="4" stroke="#3cc583" stroke-width="2"><g><path d="M 10 10L 10 70"></path></g></g></g><g id="g-root-cp_3_text-3_1lxdp3cfvmcqo-stroke" data-item-order="-200391" transform="translate(290, 296)"><g id="cp_3_text-3_1lxdp3cfvmcqo-stroke" fill="none" stroke-linecap="round" stroke-linejoin="round" stroke-miterlimit="4" stroke="#92bd39" stroke-width="2"><g><path d="M 10 10L 10 70"></path></g></g></g><g id="g-root-ic_sync_1uu9nigfvmdcd-stroke" data-item-order="-2304" transform="translate(230, 122)"></g><g id="g-root-ic_incr_8xqvygfvp534-stroke" data-item-order="-2304" transform="translate(230, 218)"></g><g id="g-root-ic_repo_hvvsjsfvql8j-stroke" data-item-order="-2304" transform="translate(230, 302)"></g><g id="g-root-tx__zqwnk8fvmbyi-stroke" data-item-order="0" transform="translate(212, 38)"></g><g id="g-root-tx__hzmn2gfvmebn-stroke" data-item-order="0" transform="translate(302, 116)"></g><g id="g-root-tx__94m3wofvmbyk-stroke" data-item-order="0" transform="translate(302, 152)"></g><g id="g-root-tx__qoefd4fvp5vq-stroke" data-item-order="0" transform="translate(302, 212)"></g><g id="g-root-tx__dcxwzsfvp7gn-stroke" data-item-order="0" transform="translate(302, 248)"></g><g id="g-root-tx__zmjbygfvqm15-stroke" data-item-order="0" transform="translate(302, 296)"></g><g id="g-root-tx__mbpao8fvqkga-stroke" data-item-order="0" transform="translate(302, 332)"></g></g></g><path id="w1d1rnm0fv9pn3" d="M65.283 12.757a.35.35 0 0 0 .584.157l5.203-5.141-6.183 3.523.396 1.461zm-2.216-11.7a.35.35 0 0 0-.522.305v3.111l3.276-1.868-2.754-1.548zm3.728 2.105l-4.25 2.421v2.445l6.391-3.644-2.141-1.222zm4.708 3.303a.35.35 0 0 0 0-.609l-1.592-.9-7.365 4.199v1.782a.35.35 0 0 0 .523.305l8.435-4.777z M44.542 2.513c0-.433.355-.783.792-.783s.792.35.792.783-.355.783-.792.783-.792-.35-.792-.783zm59.171 0c0-.433.355-.783.792-.783s.792.35.792.783-.355.783-.792.783-.792-.35-.792-.783zm-85.951 7.636h-1.27v-.487c-.276.201-.864.609-1.881.609-1.202 0-2.274-.794-2.137-2.078.118-1.106 1.153-1.584 1.848-1.727l2.17-.345c0-.539-.29-.956-1.064-1.006s-1.21.305-1.571 1.017l-1.124-.605c1.218-2.631 5.029-1.764 5.029.414v4.207zm-1.27-2.86c.006.396-.062 1.112-.819 1.59-.587.37-1.841.299-1.903-.395-.049-.555.461-.791.906-.898l1.816-.297zm72.662 2.86h-1.27v-.487c-.276.201-.864.609-1.881.609-1.202 0-2.274-.794-2.137-2.078.118-1.106 1.153-1.584 1.848-1.727l2.17-.345c0-.539-.29-.956-1.064-1.006s-1.21.305-1.571 1.017l-1.124-.605c1.218-2.631 5.029-1.764 5.029.414v4.207zm-1.27-2.86c.006.396-.062 1.112-.82 1.59-.587.37-1.841.299-1.903-.395-.049-.555.461-.791.906-.898l1.816-.297zM99.096 10.149H97.85v-8.45h1.246v4.895l2.68-2.559h1.738l-2.633 2.535 2.715 3.578h-1.556l-2.077-2.707-.867.844v1.863zm6.053-6.114h-1.255v6.113h1.255V4.035zm-59.2 0h-1.255v6.113h1.255V4.035zm5.584 6.113V1.697h1.255v2.695c.361-.346 1-.485 1.47-.485 1.452 0 2.477 1.082 2.457 2.448v3.792h-1.27v-3.68c0-.408-.214-1.339-1.315-1.339-.968 0-1.342.756-1.342 1.339v3.681h-1.255zm-4.76-4.894V4.039h.621a.45.45 0 0 0 .45-.45v-.855h1.251v1.305h1.309v1.215h-1.309v3.109c0 .293.105.664.648.664.365 0 .531-.035.736-.07v1.137s-.361.113-.857.113c-1.398 0-1.777-1.051-1.777-1.788V5.254h-1.071zM36.528 4.039h-1.394l2.191 6.106h1.125l1.234-3.918 1.238 3.918h1.129l2.188-6.106h-1.383l-1.359 3.93-1.256-3.93h-1.124l-1.242 3.957-1.348-3.957zM26.212 7.141c-.02 1.566 1.187 3.129 3.223 3.129 1.566 0 2.383-.918 2.734-1.719L31.172 8c-.315.399-.801 1.094-1.738 1.094-1.145 0-1.825-.781-1.891-1.52h4.625c.074-.284.148-.995-.03-1.559-.336-1.064-1.221-2.102-2.839-2.102s-3.088 1.152-3.088 3.227zm1.363-.75h3.348c-.055-.43-.566-1.301-1.623-1.301a1.79 1.79 0 0 0-1.725 1.301zm-8.758.75c.038 1.758 1.277 3.133 3.145 3.133 1.074 0 1.723-.477 1.961-.672v.547h1.242V1.703h-1.258v2.888c-.414-.36-1.062-.68-1.93-.68-1.91 0-3.198 1.473-3.16 3.23zm1.309-.08c0 1.119.723 1.978 1.836 1.978a1.88 1.88 0 0 0 1.94-1.904c0-1.371-1.011-1.99-1.972-1.99s-1.805.798-1.805 1.916zm76.683-.028C96.771 5.275 95.532 3.9 93.664 3.9c-1.074 0-1.723.477-1.961.672v-.547h-1.242v8.22h1.258V9.583c.414.36 1.063.68 1.93.68 1.91 0 3.198-1.473 3.16-3.23zm-1.309.08c0-1.119-.723-1.978-1.836-1.978a1.88 1.88 0 0 0-1.94 1.904c0 1.371 1.011 1.99 1.972 1.99S95.5 8.231 95.5 7.113zM106.441 10.173V4.036h1.254v.382c.361-.346 1-.485 1.47-.485 1.452 0 2.477 1.082 2.457 2.448v3.792h-1.27V6.492c0-.408-.214-1.339-1.315-1.339-.969 0-1.342.756-1.342 1.339v3.681h-1.254zm-30.383-.021V1.824h1.084l4.215 5.777V1.824h1.32v8.328h-1.094l-4.207-5.796v5.796h-1.319zM5.24 10.149H4V2.377h1.014l2.664 3.597 2.654-3.592h1.03v7.766h-1.256V4.762L7.678 8.068 5.24 4.742v5.407z" transform="translate(20, 410)" fill="#80808088" stroke="none"></path></svg>