<?xml version="1.0" encoding="utf-8" standalone="yes"?>
<!DOCTYPE svg PUBLIC "-//W3C//DTD SVG 1.1//EN" "http://www.w3.org/Graphics/SVG/1.1/DTD/svg11.dtd">
<svg width="714" height="450" viewBox="0 0 714 450" style="fill:none;stroke:none;fill-rule:evenodd;clip-rule:evenodd;stroke-linecap:round;stroke-linejoin:round;stroke-miterlimit:1.5;" version="1.1" xmlns="http://www.w3.org/2000/svg" xmlns:xlink="http://www.w3.org/1999/xlink"><style class="text-font-style fontImports" data-font-family="Roboto">@import url('https://fonts.googleapis.com/css2?family=Roboto:wght@400;700&amp;display=block');</style><g id="items" style="isolation: isolate"><g id="blend" style="mix-blend-mode: normal"><g id="g-root-sy_5_Vector_dilf1l9rob9g-fill" data-item-order="-109290" transform="translate(170.0001220703125, 307.906982421875)"><g id="sy_5_Vector_dilf1l9rob9g-fill" stroke="none" fill="#f3f0ff"><g><path d="M 102.705863 30.424987L 105.873863 11.678987L 86.946863 9.999987L 91.332863 15.684987L 70.707863 31.616987L 70.536863 31.739987C 62.915863 24.652987 52.298863 20.909987 41.180863 22.412987C 21.477863 25.076987 7.664863 43.208987 10.328863 62.911987C 12.992863 82.614987 31.124863 96.427987 50.827863 93.763987C 70.530863 91.099987 84.343863 72.967987 81.679863 53.264987C 81.071863 48.769987 79.658863 44.581987 77.605863 40.825987L 77.713863 40.748987L 98.363863 24.796987L 102.705863 30.424987Z"></path></g></g></g><g id="g-root-sy_4_Vector_4nkvvt9ro8wd-fill" data-item-order="-109286" transform="translate(424.36199951171875, 218)"><g id="sy_4_Vector_4nkvvt9ro8wd-fill" stroke="none" fill="#fff2e5"><g><path d="M 23.966 58.893L 10 46L 23.966 33.108L 23.966 40.284L 50.089 40.284C 52.828 23.118 67.701 10 85.638 10C 105.52 10 121.638 26.118 121.638 46C 121.638 65.882 105.52 82 85.638 82C 67.726 82 52.869 68.918 50.101 51.788L 23.966 51.788L 23.966 58.893Z"></path></g></g></g><g id="g-root-sy_3_Vector_7rdrd9ro9om-fill" data-item-order="-109282" transform="translate(140, 218)"><g id="sy_3_Vector_7rdrd9ro9om-fill" stroke="none" fill="#e8f9ff"><g><path d="M 107.735 58.892L 121.701 46L 107.735 33.107L 107.735 40.284L 81.549 40.284C 78.81 23.118 63.937 10 46 10C 26.118 10 10 26.118 10 46C 10 65.882 26.118 82 46 82C 63.912 82 78.769 68.918 81.537 51.787L 107.735 51.787L 107.735 58.892Z"></path></g></g></g><g id="g-root-sy_2_Vector_1qd8fhl9roaa7-fill" data-item-order="-109278" transform="translate(410.1209716796875, 116)"><g id="sy_2_Vector_1qd8fhl9roaa7-fill" stroke="none" fill="#f4ffdc"><g><path d="M 28.925998 94.116L 9.999998 92.435L 13.168998 73.69L 17.553998 79.375L 38.171998 63.451L 38.310998 63.336C 36.236998 59.562 34.810998 55.349 34.199998 50.825C 31.536998 31.122 45.350998 12.991 65.053998 10.3285C 84.757998 7.666 102.888998 21.48 105.550998 41.183C 108.213998 60.887 94.398998 79.017 74.695998 81.68C 63.603998 83.179 53.009998 79.456 45.393998 72.4L 45.209998 72.557L 24.583998 88.487L 28.925998 94.116Z"></path></g></g></g><g id="g-root-sy_1_Vector_1lxexd59rob2g-fill" data-item-order="-109274" transform="translate(170.0001220703125, 115.9990234375)"><g id="sy_1_Vector_1lxexd59rob2g-fill" stroke="none" fill="#e3fff2"><g><path d="M 86.975863 94.101954L 105.903863 92.443954L 102.756863 73.694954L 98.364863 79.374954L 77.737863 63.404954L 77.594863 63.287954C 79.653863 59.526954 81.070863 55.330954 81.679863 50.827954C 84.343863 31.124954 70.530863 12.992754 50.827863 10.328854C 31.124863 7.664854 12.992863 21.477954 10.328863 41.180954C 7.664863 60.883954 21.477863 79.015954 41.180863 81.679954C 52.288863 83.181954 62.897863 79.445954 70.517863 72.369954L 70.695863 72.508954L 91.323863 88.478954L 86.975863 94.101954Z"></path></g></g></g><g id="g-root-cr_0_cr-big_1hi7wbt9ro8ox-fill" data-item-order="-109270" transform="translate(266, 182)"><g id="cr_0_cr-big_1hi7wbt9ro8ox-fill" stroke="none" fill="#f5f5f5"><g><path d="M 10 82C 10.000001 121.764503 42.235499 154.000001 82.000001 154.000001C 121.764503 154.000001 154.000001 121.764503 154.000001 82.000001C 154.000001 42.235499 121.764503 10.000001 82.000001 10.000001C 42.235499 10.000001 10.000001 42.235499 10.000001 82.000001"></path></g></g></g><g id="g-root-tx_smartsel_vb4dpl9rzjf2-fill" data-item-order="0" transform="translate(140, 38)"><g id="tx_smartsel_vb4dpl9rzjf2-fill" stroke="none" fill="#484848"><g><text style="font: bold 25px Roboto, sans-serif; white-space: pre;" font-weight="bold" font-size="25px" font-family="Roboto, sans-serif"><tspan x="13.19" y="42.6" dominant-baseline="ideographic">ميزات Smart-Seller التي تعزز تجربة التاجر</tspan></text></g></g></g><g id="g-root-ic_quar_1uuxcvd9rwq33-fill" data-item-order="0" transform="translate(182, 128)"></g><g id="g-root-tx__18mkw2x9rzhu5-fill" data-item-order="0" transform="translate(26, 140)"><g id="tx__18mkw2x9rzhu5-fill" stroke="none" fill="#484848"><g><text style="font: 20px Roboto, sans-serif; white-space: pre;" font-size="20px" font-family="Roboto, sans-serif"><tspan x="14.04" y="34" dominant-baseline="ideographic">تسجيل بسيط وسريع</tspan></text></g></g></g><g id="g-root-ic_gaug_zrkcx59rwopa-fill" data-item-order="0" transform="translate(445.9840087890625, 128)"></g><g id="g-root-tx__1ut1xm19rzimc-fill" data-item-order="0" transform="translate(518, 128)"><g id="tx__1ut1xm19rzimc-fill" stroke="none" fill="#484848"><g><text style="font: 20px Roboto, sans-serif; white-space: pre;" font-size="20px" font-family="Roboto, sans-serif"><tspan x="12" y="34" dominant-baseline="ideographic">إنشاء موقع إلكتروني </tspan><tspan x="12" y="58" dominant-baseline="ideographic">تلقائي</tspan></text></g></g></g><g id="g-root-tx__93ee099rzh8j-fill" data-item-order="0" transform="translate(32, 230)"><g id="tx__93ee099rzh8j-fill" stroke="none" fill="#484848"><g><text style="font: 20px Roboto, sans-serif; white-space: pre;" font-size="20px" font-family="Roboto, sans-serif"><tspan x="13.2" y="34" dominant-baseline="ideographic">إدارة المنتجات </tspan><tspan x="39.66" y="58" dominant-baseline="ideographic">والمخزون</tspan></text></g></g></g><g id="g-root-ic_bask_hvx0tl9rvb45-fill" data-item-order="0" transform="translate(152, 230)"></g><g id="g-root-ic_hand_v800a19rzj0g-fill" data-item-order="0" transform="translate(302, 218)"></g><g id="g-root-ic_writ_1lsf4o99rr2ff-fill" data-item-order="0" transform="translate(476, 230)"></g><g id="g-root-tx__me8fah9rzite-fill" data-item-order="0" transform="translate(548, 230)"><g id="tx__me8fah9rzite-fill" stroke="none" fill="#484848"><g><text style="font: 20px Roboto, sans-serif; white-space: pre;" font-size="20px" font-family="Roboto, sans-serif"><tspan x="12" y="34" dominant-baseline="ideographic">إنشاء الفواتير وتتبع </tspan><tspan x="12" y="58" dominant-baseline="ideographic">العملاء</tspan></text></g></g></g><g id="g-root-tx__1d0iyy19rzitd-fill" data-item-order="0" transform="translate(14, 344)"><g id="tx__1d0iyy19rzitd-fill" stroke="none" fill="#484848"><g><text style="font: 20px Roboto, sans-serif; white-space: pre;" font-size="20px" font-family="Roboto, sans-serif"><tspan x="14.41" y="34" dominant-baseline="ideographic">واجهة سهلة الاستخدام</tspan></text></g></g></g><g id="g-root-ic_smar_18mkw2x9ro9hm-fill" data-item-order="0" transform="translate(182, 332)"></g><g id="g-root-sy_5_Vector_dilf1l9rob9g-stroke" data-item-order="-109290" transform="translate(170.0001220703125, 307.906982421875)"><g id="sy_5_Vector_dilf1l9rob9g-stroke" fill="none" stroke-linecap="round" stroke-linejoin="round" stroke-miterlimit="4" stroke="#7f64ea" stroke-width="2"><g><path d="M 102.705863 30.424987L 105.873863 11.678987L 86.946863 9.999987L 91.332863 15.684987L 70.707863 31.616987L 70.536863 31.739987C 62.915863 24.652987 52.298863 20.909987 41.180863 22.412987C 21.477863 25.076987 7.664863 43.208987 10.328863 62.911987C 12.992863 82.614987 31.124863 96.427987 50.827863 93.763987C 70.530863 91.099987 84.343863 72.967987 81.679863 53.264987C 81.071863 48.769987 79.658863 44.581987 77.605863 40.825987L 77.713863 40.748987L 98.363863 24.796987L 102.705863 30.424987Z"></path></g></g></g><g id="g-root-sy_4_Vector_4nkvvt9ro8wd-stroke" data-item-order="-109286" transform="translate(424.36199951171875, 218)"><g id="sy_4_Vector_4nkvvt9ro8wd-stroke" fill="none" stroke-linecap="round" stroke-linejoin="round" stroke-miterlimit="4" stroke="#de8431" stroke-width="2"><g><path d="M 23.966 58.893L 10 46L 23.966 33.108L 23.966 40.284L 50.089 40.284C 52.828 23.118 67.701 10 85.638 10C 105.52 10 121.638 26.118 121.638 46C 121.638 65.882 105.52 82 85.638 82C 67.726 82 52.869 68.918 50.101 51.788L 23.966 51.788L 23.966 58.893Z"></path></g></g></g><g id="g-root-sy_3_Vector_7rdrd9ro9om-stroke" data-item-order="-109282" transform="translate(140, 218)"><g id="sy_3_Vector_7rdrd9ro9om-stroke" fill="none" stroke-linecap="round" stroke-linejoin="round" stroke-miterlimit="4" stroke="#1eabda" stroke-width="2"><g><path d="M 107.735 58.892L 121.701 46L 107.735 33.107L 107.735 40.284L 81.549 40.284C 78.81 23.118 63.937 10 46 10C 26.118 10 10 26.118 10 46C 10 65.882 26.118 82 46 82C 63.912 82 78.769 68.918 81.537 51.787L 107.735 51.787L 107.735 58.892Z"></path></g></g></g><g id="g-root-sy_2_Vector_1qd8fhl9roaa7-stroke" data-item-order="-109278" transform="translate(410.1209716796875, 116)"><g id="sy_2_Vector_1qd8fhl9roaa7-stroke" fill="none" stroke-linecap="round" stroke-linejoin="round" stroke-miterlimit="4" stroke="#92bd39" stroke-width="2"><g><path d="M 28.925998 94.116L 9.999998 92.435L 13.168998 73.69L 17.553998 79.375L 38.171998 63.451L 38.310998 63.336C 36.236998 59.562 34.810998 55.349 34.199998 50.825C 31.536998 31.122 45.350998 12.991 65.053998 10.3285C 84.757998 7.666 102.888998 21.48 105.550998 41.183C 108.213998 60.887 94.398998 79.017 74.695998 81.68C 63.603998 83.179 53.009998 79.456 45.393998 72.4L 45.209998 72.557L 24.583998 88.487L 28.925998 94.116Z"></path></g></g></g><g id="g-root-sy_1_Vector_1lxexd59rob2g-stroke" data-item-order="-109274" transform="translate(170.0001220703125, 115.9990234375)"><g id="sy_1_Vector_1lxexd59rob2g-stroke" fill="none" stroke-linecap="round" stroke-linejoin="round" stroke-miterlimit="4" stroke="#3cc583" stroke-width="2"><g><path d="M 86.975863 94.101954L 105.903863 92.443954L 102.756863 73.694954L 98.364863 79.374954L 77.737863 63.404954L 77.594863 63.287954C 79.653863 59.526954 81.070863 55.330954 81.679863 50.827954C 84.343863 31.124954 70.530863 12.992754 50.827863 10.328854C 31.124863 7.664854 12.992863 21.477954 10.328863 41.180954C 7.664863 60.883954 21.477863 79.015954 41.180863 81.679954C 52.288863 83.181954 62.897863 79.445954 70.517863 72.369954L 70.695863 72.508954L 91.323863 88.478954L 86.975863 94.101954Z"></path></g></g></g><g id="g-root-cr_0_cr-big_1hi7wbt9ro8ox-stroke" data-item-order="-109270" transform="translate(266, 182)"><g id="cr_0_cr-big_1hi7wbt9ro8ox-stroke" fill="none" stroke-linecap="round" stroke-linejoin="round" stroke-miterlimit="4" stroke="#969696" stroke-width="2"><g><path d="M 10 82C 10.000001 121.764503 42.235499 154.000001 82.000001 154.000001C 121.764503 154.000001 154.000001 121.764503 154.000001 82.000001C 154.000001 42.235499 121.764503 10.000001 82.000001 10.000001C 42.235499 10.000001 10.000001 42.235499 10.000001 82.000001"></path></g></g></g><g id="g-root-tx_smartsel_vb4dpl9rzjf2-stroke" data-item-order="0" transform="translate(140, 38)"></g><g id="g-root-ic_quar_1uuxcvd9rwq33-stroke" data-item-order="0" transform="translate(182, 128)"><g id="ic_quar_1uuxcvd9rwq33-stroke" fill="none" stroke-linecap="round" stroke-linejoin="round" stroke-miterlimit="4" stroke="#3cc583" stroke-width="2"><g><path d="M 31.049999 11.002L 35.049999 11.002M 33.049999 11.002L 33.049999 17.001999M 49.049999 17.001999L 52.049999 20.001999M 50.549999 18.501999L 46.666 22.386M 19.049999 37.001999L 23.049999 37.001999M 23.049999 27.002001L 26.049999 30.002001M 33.049999 51.001999L 33.049999 47.001999M 23.049999 47.001999L 26.049999 44.001999M 43.049999 47.001999L 40.049999 44.001999M 43.049999 27.002001L 40.049999 30.002001M 33.049999 37L 53.049999 37C 53.018143 25.967527 44.082474 17.031857 33.050003 17Z"></path></g></g></g><g id="g-root-tx__18mkw2x9rzhu5-stroke" data-item-order="0" transform="translate(26, 140)"></g><g id="g-root-ic_gaug_zrkcx59rwopa-stroke" data-item-order="0" transform="translate(445.9840087890625, 128)"><g id="ic_gaug_zrkcx59rwopa-stroke" fill="none" stroke-linecap="round" stroke-linejoin="round" stroke-miterlimit="4" stroke="#92bd39" stroke-width="2"><g><path d="M 57 49C 57 51.209141 55.209141 53 53 53L 15 53C 12.790861 53 11 51.209141 11 49L 11 17C 11 14.790861 12.790861 13 15 13L 53 13C 55.209141 13 57 14.790861 57 17ZM 11 23L 57 23M 18.5 17L 18.5 17M 18.5 17C 18.223858 17 18 17.223858 18 17.5C 18 17.776142 18.223858 18 18.5 18C 18.776142 18 19 17.776142 19 17.5C 19 17.223858 18.776142 17 18.5 17M 24.5 17L 24.5 17M 24.5 17C 24.223858 17 24 17.223858 24 17.5C 24 17.776142 24.223858 18 24.5 18C 24.776142 18 25 17.776142 25 17.5C 25 17.223858 24.776142 17 24.5 17M 30.5 17L 30.5 17M 30.5 17C 30.223858 17 30 17.223858 30 17.5C 30 17.776142 30.223858 18 30.5 18C 30.776142 18 31 17.776142 31 17.5C 31 17.223858 30.776142 17 30.5 17M 18 46.001999L 22 46.001999M 20.144001 38.001999L 23.608 40.001999M 26 32.143997L 28 35.608002M 34 30L 34 33.998001M 47.860001 37.998001L 44.396 39.996002M 50.004002 45.998001L 46.006001 45.998001M 41.257999 33.860001C 41.658001 32.837997 41.363998 32.638 40.585999 33.416L 32.414001 41.587997C 31.567923 42.531158 31.069092 43.734844 31 45L 31 46C 30.978792 46.497948 31.193777 46.976711 31.580027 47.291695C 31.966274 47.606678 32.4785 47.720951 32.961998 47.600002L 34.038002 47.383999C 35.229252 47.074974 36.220623 46.250786 36.742001 45.136002Z"></path></g></g></g><g id="g-root-tx__1ut1xm19rzimc-stroke" data-item-order="0" transform="translate(518, 128)"></g><g id="g-root-tx__93ee099rzh8j-stroke" data-item-order="0" transform="translate(32, 230)"></g><g id="g-root-ic_bask_hvx0tl9rvb45-stroke" data-item-order="0" transform="translate(152, 230)"><g id="ic_bask_hvx0tl9rvb45-stroke" fill="none" stroke-linecap="round" stroke-linejoin="round" stroke-miterlimit="4" stroke="#1eabda" stroke-width="2"><g><path d="M 43.099998 40.099998C 44.757 40.099998 46.099998 38.756798 46.099998 37.099998C 46.099998 35.443001 44.757 34.099998 43.099998 34.099998C 41.443199 34.099998 40.099998 35.443001 40.099998 37.099998C 40.099998 38.756798 41.443199 40.099998 43.099998 40.099998ZM 32.500198 46.099998C 34.156998 46.099998 35.500198 44.756802 35.500198 43.099998C 35.500198 41.443001 34.156998 40.099998 32.500198 40.099998C 30.843201 40.099998 29.50012 41.443001 29.50012 43.099998C 29.50012 44.756802 30.843201 46.099998 32.500198 46.099998ZM 53.500198 46.099998C 55.157001 46.099998 56.500198 44.756802 56.500198 43.099998C 56.500198 41.443001 55.157001 40.099998 53.500198 40.099998C 51.843201 40.099998 50.500198 41.443001 50.500198 43.099998C 50.500198 44.756802 51.843201 46.099998 53.500198 46.099998ZM 37.100201 56.5C 35.9002 56.5 35.100201 55.099998 35.9002 54.099998L 41.9002 46.099998C 42.500198 45.299999 43.700199 45.299999 44.300201 46.099998L 50.300201 54.099998C 51.100201 55.099998 50.300201 56.5 49.100201 56.5L 37.100201 56.5ZM 23.36874 44.5L 18.56872 44.5C 17.16872 44.5 16.168739 43.5 15.76874 42.299999L 11.568722 24.299961C 11.168722 22.49996 12.56874 20.49996 14.36874 20.49996L 50.568802 20.49996C 52.368801 20.49996 53.768799 22.299961 53.368801 24.299961L 51.768799 30.299999M 10 10M 17.36878 20.49996L 26.36878 11.499969M 10 10M 47.368801 20.49996L 38.368797 11.499969"></path></g></g></g><g id="g-root-ic_hand_v800a19rzj0g-stroke" data-item-order="0" transform="translate(302, 218)"><g id="ic_hand_v800a19rzj0g-stroke" fill="none" stroke-linecap="round" stroke-linejoin="round" stroke-miterlimit="4" stroke="#969696" stroke-width="2"><g><path d="M 35.5 46L 35.5 35.02M 74.5 35.02L 74.5 74.5C 74.5 77.813713 71.813713 80.5 68.5 80.5L 41.5 80.5C 38.186291 80.5 35.5 77.813713 35.5 74.5L 35.5 58M 74.5 23.5L 35.5 23.5M 74.5 68.5L 35.5 68.5M 55 73.75L 55 73.75C 55.414215 73.75 55.75 74.085785 55.75 74.5L 55.75 74.5C 55.75 74.914215 55.414215 75.25 55 75.25L 55 75.25C 54.585785 75.25 54.25 74.914215 54.25 74.5L 54.25 74.5C 54.25 74.085785 54.585785 73.75 55 73.75M 75.340004 13.15C 74.826805 12.131489 73.780472 11.492063 72.639999 11.5L 37.360001 11.5C 36.219528 11.492063 35.173195 12.131489 34.66 13.15L 29.5 23.5L 80.5 23.5ZM 55 23.5L 29.5 23.5L 29.5 26.5C 29.367222 30.120977 31.523451 33.435036 34.887703 34.780735C 38.251957 36.126438 42.098923 35.213657 44.5 32.5C 46.75676 36.150452 50.709251 38.409019 54.999996 38.499996C 59.290741 38.409019 63.243237 36.150452 65.499992 32.5C 67.901077 35.213657 71.748039 36.126438 75.112289 34.780735C 78.476547 33.435036 80.632774 30.120977 80.5 26.5L 80.5 23.5ZM 44.5 32.5L 44.5 23.5L 47.5 11.5M 65.5 32.5L 65.5 23.5L 62.5 11.5M 50.5 50.5L 63.220001 50.5C 63.708714 50.50021 64.166687 50.738487 64.44735 51.138577C 64.728012 51.538666 64.796165 52.0504 64.629997 52.510002L 61.360001 61.510002C 61.145279 62.10392 60.581547 62.499733 59.949997 62.5L 49.209999 62.5C 48.613956 62.494427 48.075413 62.143204 47.829998 61.599998L 46.449997 57.670002M 62.5 50.5L 59.5 46M 35.5 58L 44.5 58C 47.813709 58 50.5 55.313709 50.5 52C 50.5 48.686291 47.813709 46 44.5 46L 28 46M 29.5 67C 33.14957 65.505936 35.524544 61.943474 35.5 58M 30.73 31L 29.5 31C 19.558874 31 11.5 39.058876 11.5 49L 11.5 65.649994C 11.5 70.18 13.51 72.340004 17.5 74.5L 17.5 80.5"></path></g></g></g><g id="g-root-ic_writ_1lsf4o99rr2ff-stroke" data-item-order="0" transform="translate(476, 230)"><g id="ic_writ_1lsf4o99rr2ff-stroke" fill="none" stroke-linecap="round" stroke-linejoin="round" stroke-miterlimit="4" stroke="#de8431" stroke-width="2"><g><path d="M 47 48L 47 55C 47 56.104568 46.104568 57 45 57L 13 57C 11.895431 57 11 56.104568 11 55L 11 19C 11 17.895432 11.895431 17 13 17L 19 17M 39 17L 45 17C 46.104568 17 47 17.895432 47 19L 47 26M 26 13.998C 26 15.654854 27.343145 16.998001 29 16.998001C 30.656855 16.998001 32 15.654854 32 13.998C 32 12.341146 30.656855 10.998 29 10.998C 27.343145 10.998 26 12.341146 26 13.998ZM 31.83 15L 37 15C 38.104568 15 39 15.895431 39 17L 39 19C 39 20.104568 38.104568 21 37 21L 21 21C 19.895432 21 19 20.104568 19 19L 19 17C 19 15.895431 19.895432 15 21 15L 26.17 15M 17 28.997999L 41 28.997999M 17 36.998001L 35.931999 36.998001M 17 44.998001L 32.966 44.998001M 44 45L 37 47L 39 40L 50.964001 28.035999C 52.351051 26.693272 54.558674 26.711191 55.923744 28.07626C 57.288811 29.441328 57.306732 31.648952 55.964001 33.036003Z"></path></g></g></g><g id="g-root-tx__me8fah9rzite-stroke" data-item-order="0" transform="translate(548, 230)"></g><g id="g-root-tx__1d0iyy19rzitd-stroke" data-item-order="0" transform="translate(14, 344)"></g><g id="g-root-ic_smar_18mkw2x9ro9hm-stroke" data-item-order="0" transform="translate(182, 332)"><g id="ic_smar_18mkw2x9ro9hm-stroke" fill="none" stroke-linecap="round" stroke-linejoin="round" stroke-miterlimit="4" stroke="#7f64ea" stroke-width="2"><g><path d="M 47.334 49L 21.334 49M 34.334 53.5L 34.334 53.5M 34.834 53C 34.834 53.276142 34.610142 53.5 34.334 53.5M 34.834 53L 34.834 53M 34.334 52.5C 34.610142 52.5 34.834 52.723858 34.834 53M 34.334 52.5L 34.334 52.5M 33.834 53C 33.833466 52.867226 33.885971 52.739738 33.979858 52.645855C 34.073738 52.551971 34.201225 52.499466 34.334 52.5M 33.834 53L 33.834 53M 34.334 53.5C 34.201225 53.500534 34.073738 53.448025 33.979858 53.354141C 33.885971 53.260258 33.833466 53.132771 33.834 53M 25.334 11L 43.334 11C 43.334 11 47.334 11 47.334 15L 47.334 53C 47.334 53 47.334 57 43.334 57L 25.334 57C 25.334 57 21.334 57 21.334 53L 21.334 15C 21.334 15 21.334 11 25.334 11M 27.334 17L 27.334 19M 25.334 21C 25.334 22.104568 26.229431 23 27.334 23C 28.43857 23 29.334 22.104568 29.334 21C 29.334 19.895432 28.43857 19 27.334 19C 26.229431 19 25.334 19.895432 25.334 21M 25.334 31C 25.334 32.104568 26.229431 33 27.334 33C 28.43857 33 29.334 32.104568 29.334 31C 29.334 29.89543 28.43857 29 27.334 29C 26.229431 29 25.334 29.89543 25.334 31M 25.334 41C 25.334 42.104568 26.229431 43 27.334 43C 28.43857 43 29.334 42.104568 29.334 41C 29.334 39.895432 28.43857 39 27.334 39C 26.229431 39 25.334 39.895432 25.334 41M 27.334 23L 27.334 29M 27.334 33L 27.334 39M 27.334 43L 27.334 45M 33.334 21L 43.334 21M 33.334 31L 41.334 31M 33.334 41L 43.334 41"></path></g></g></g></g></g><path id="wdeukhkh9lptz" d="M65.283 12.757a.35.35 0 0 0 .584.157l5.203-5.141-6.183 3.523.396 1.461zm-2.216-11.7a.35.35 0 0 0-.522.305v3.111l3.276-1.868-2.754-1.548zm3.728 2.105l-4.25 2.421v2.445l6.391-3.644-2.141-1.222zm4.708 3.303a.35.35 0 0 0 0-.609l-1.592-.9-7.365 4.199v1.782a.35.35 0 0 0 .523.305l8.435-4.777z M44.542 2.513c0-.433.355-.783.792-.783s.792.35.792.783-.355.783-.792.783-.792-.35-.792-.783zm59.171 0c0-.433.355-.783.792-.783s.792.35.792.783-.355.783-.792.783-.792-.35-.792-.783zm-85.951 7.636h-1.27v-.487c-.276.201-.864.609-1.881.609-1.202 0-2.274-.794-2.137-2.078.118-1.106 1.153-1.584 1.848-1.727l2.17-.345c0-.539-.29-.956-1.064-1.006s-1.21.305-1.571 1.017l-1.124-.605c1.218-2.631 5.029-1.764 5.029.414v4.207zm-1.27-2.86c.006.396-.062 1.112-.819 1.59-.587.37-1.841.299-1.903-.395-.049-.555.461-.791.906-.898l1.816-.297zm72.662 2.86h-1.27v-.487c-.276.201-.864.609-1.881.609-1.202 0-2.274-.794-2.137-2.078.118-1.106 1.153-1.584 1.848-1.727l2.17-.345c0-.539-.29-.956-1.064-1.006s-1.21.305-1.571 1.017l-1.124-.605c1.218-2.631 5.029-1.764 5.029.414v4.207zm-1.27-2.86c.006.396-.062 1.112-.82 1.59-.587.37-1.841.299-1.903-.395-.049-.555.461-.791.906-.898l1.816-.297zM99.096 10.149H97.85v-8.45h1.246v4.895l2.68-2.559h1.738l-2.633 2.535 2.715 3.578h-1.556l-2.077-2.707-.867.844v1.863zm6.053-6.114h-1.255v6.113h1.255V4.035zm-59.2 0h-1.255v6.113h1.255V4.035zm5.584 6.113V1.697h1.255v2.695c.361-.346 1-.485 1.47-.485 1.452 0 2.477 1.082 2.457 2.448v3.792h-1.27v-3.68c0-.408-.214-1.339-1.315-1.339-.968 0-1.342.756-1.342 1.339v3.681h-1.255zm-4.76-4.894V4.039h.621a.45.45 0 0 0 .45-.45v-.855h1.251v1.305h1.309v1.215h-1.309v3.109c0 .293.105.664.648.664.365 0 .531-.035.736-.07v1.137s-.361.113-.857.113c-1.398 0-1.777-1.051-1.777-1.788V5.254h-1.071zM36.528 4.039h-1.394l2.191 6.106h1.125l1.234-3.918 1.238 3.918h1.129l2.188-6.106h-1.383l-1.359 3.93-1.256-3.93h-1.124l-1.242 3.957-1.348-3.957zM26.212 7.141c-.02 1.566 1.187 3.129 3.223 3.129 1.566 0 2.383-.918 2.734-1.719L31.172 8c-.315.399-.801 1.094-1.738 1.094-1.145 0-1.825-.781-1.891-1.52h4.625c.074-.284.148-.995-.03-1.559-.336-1.064-1.221-2.102-2.839-2.102s-3.088 1.152-3.088 3.227zm1.363-.75h3.348c-.055-.43-.566-1.301-1.623-1.301a1.79 1.79 0 0 0-1.725 1.301zm-8.758.75c.038 1.758 1.277 3.133 3.145 3.133 1.074 0 1.723-.477 1.961-.672v.547h1.242V1.703h-1.258v2.888c-.414-.36-1.062-.68-1.93-.68-1.91 0-3.198 1.473-3.16 3.23zm1.309-.08c0 1.119.723 1.978 1.836 1.978a1.88 1.88 0 0 0 1.94-1.904c0-1.371-1.011-1.99-1.972-1.99s-1.805.798-1.805 1.916zm76.683-.028C96.771 5.275 95.532 3.9 93.664 3.9c-1.074 0-1.723.477-1.961.672v-.547h-1.242v8.22h1.258V9.583c.414.36 1.063.68 1.93.68 1.91 0 3.198-1.473 3.16-3.23zm-1.309.08c0-1.119-.723-1.978-1.836-1.978a1.88 1.88 0 0 0-1.94 1.904c0 1.371 1.011 1.99 1.972 1.99S95.5 8.231 95.5 7.113zM106.441 10.173V4.036h1.254v.382c.361-.346 1-.485 1.47-.485 1.452 0 2.477 1.082 2.457 2.448v3.792h-1.27V6.492c0-.408-.214-1.339-1.315-1.339-.969 0-1.342.756-1.342 1.339v3.681h-1.254zm-30.383-.021V1.824h1.084l4.215 5.777V1.824h1.32v8.328h-1.094l-4.207-5.796v5.796h-1.319zM5.24 10.149H4V2.377h1.014l2.664 3.597 2.654-3.592h1.03v7.766h-1.256V4.762L7.678 8.068 5.24 4.742v5.407z" transform="translate(578, 415.9998779296875)" fill="#80808088" stroke="none"></path></svg>